<svg width="24" height="24" viewBox="0 0 24 24" fill="none" xmlns="http://www.w3.org/2000/svg">
<path d="M7.6764 18.537L8.02474 18.7428C8.65378 19.1146 9.33246 19.3967 10.0431 19.5796L10.4348 19.6804V22.4323C10.4348 22.7266 10.6678 22.9566 10.9664 22.9566H13.0337C13.3333 22.9566 13.5653 22.7247 13.5653 22.4323V19.6804L13.9569 19.5796C14.6676 19.3967 15.3462 19.1146 15.9753 18.7428L16.3236 18.537L18.27 20.4834C18.4781 20.6917 18.8055 20.6894 19.0166 20.4784L20.4785 19.0165C20.6902 18.8046 20.6904 18.4768 20.4835 18.2699L18.5372 16.3235L18.7429 15.9752C19.1147 15.3462 19.3968 14.6675 19.5797 13.9568L19.6805 13.5652H22.4324C22.7268 13.5652 22.9567 13.3321 22.9567 13.0336V10.9663C22.9567 10.6667 22.7248 10.4347 22.4324 10.4347H19.6805L19.5797 10.043C19.3968 9.33235 19.1147 8.65372 18.7429 8.02463L18.5372 7.6763L20.4835 5.72991C20.6918 5.52186 20.6895 5.19447 20.4785 4.9833L19.0166 3.52147C18.8047 3.30974 18.4769 3.30957 18.27 3.5164L16.3236 5.46278L15.9753 5.257C15.3463 4.88526 14.6676 4.60313 13.9569 4.42023L13.5653 4.31943V1.56754C13.5653 1.27319 13.3322 1.04328 13.0337 1.04328H10.9664C10.6668 1.04328 10.4348 1.27509 10.4348 1.56754V4.31943L10.0431 4.42023C9.33246 4.60313 8.65382 4.88523 8.02474 5.257L7.6764 5.46278L5.73002 3.5164C5.52197 3.30817 5.19458 3.31044 4.98341 3.52147L3.52158 4.9833C3.30985 5.1952 3.30967 5.52308 3.51651 5.72991L5.46289 7.6763L5.2571 8.02463C4.88536 8.65367 4.60324 9.33235 4.42033 10.043L4.31954 10.4347H1.56765C1.27329 10.4347 1.04338 10.6677 1.04338 10.9663V13.0336C1.04338 13.3332 1.2752 13.5652 1.56765 13.5652H4.31954L4.42033 13.9568C4.60323 14.6675 4.88534 15.3461 5.2571 15.9752L5.46289 16.3235L3.51651 18.2699C3.30828 18.478 3.31055 18.8054 3.52158 19.0165L4.98341 20.4784C5.19531 20.6901 5.52319 20.6903 5.73002 20.4834L7.6764 18.537ZM7.849 19.8403L6.46789 21.2214C5.85333 21.8359 4.86474 21.8354 4.24567 21.2163L2.7837 19.7543C2.1674 19.138 2.16074 18.15 2.77863 17.5321L4.15975 16.151C3.89876 15.6589 3.68459 15.1429 3.52037 14.6087H1.56769C0.698583 14.6087 0 13.9094 0 13.0337V10.9663C0 10.0947 0.693887 9.39133 1.56769 9.39133H3.52037C3.68458 8.85714 3.89875 8.34111 4.15975 7.849L2.77863 6.46789C2.16408 5.85333 2.16462 4.86474 2.7837 4.24567L4.24567 2.7837C4.86196 2.1674 5.85002 2.16074 6.46789 2.77864L7.849 4.15975C8.34111 3.89876 8.85714 3.68459 9.39133 3.52037V1.56769C9.39133 0.698583 10.0906 0 10.9663 0H13.0337C13.9054 0 14.6087 0.693887 14.6087 1.56769V3.52037C15.1429 3.68458 15.6589 3.89875 16.151 4.15975L17.5321 2.77864C18.1467 2.16408 19.1353 2.16462 19.7543 2.7837L21.2163 4.24567C21.8326 4.86196 21.8393 5.85002 21.2214 6.46789L19.8403 7.849C20.1012 8.34111 20.3154 8.85714 20.4796 9.39133H22.4323C23.3014 9.39133 24 10.0906 24 10.9663V13.0337C24 13.9054 23.3061 14.6087 22.4323 14.6087H20.4796C20.3154 15.1429 20.1012 15.6589 19.8403 16.151L21.2214 17.5321C21.8359 18.1467 21.8354 19.1353 21.2163 19.7543L19.7543 21.2163C19.138 21.8326 18.15 21.8393 17.5321 21.2214L16.151 19.8403C15.6589 20.1012 15.1429 20.3154 14.6087 20.4796V22.4323C14.6087 23.3014 13.9094 24 13.0337 24H10.9663C10.0947 24 9.39133 23.3061 9.39133 22.4323V20.4796C8.85714 20.3154 8.34111 20.1013 7.849 19.8403ZM12 17.2175C9.11844 17.2175 6.78241 14.8818 6.78241 11.9999C6.78241 9.11872 9.11871 6.78233 12 6.78233C14.8812 6.78233 17.2175 9.11863 17.2175 11.9999C17.2175 14.8818 14.8816 17.2175 12 17.2175ZM12 16.1739C14.3052 16.1739 16.1739 14.3056 16.1739 12C16.1739 9.69513 14.3048 7.82611 12 7.82611C9.69511 7.82611 7.8261 9.69513 7.8261 12C7.8261 14.3056 9.69476 16.1739 12 16.1739Z" fill="#171717"/>
</svg>
