<svg xmlns="http://www.w3.org/2000/svg" width="30" height="27" viewBox="0 0 30 27">
    <path fill="#FFF" fill-rule="nonzero" d="M28.5 4.5H22v-2A2.503 2.503 0 0 0 19.5 0h-9A2.503 2.503 0 0 0 8 2.5v2H1.5A1.5 1.5 0 0 0 0 6v11.13a1.507 1.507 0 0 0 1 1.412V25.5A1.5 1.5 0 0 0 2.5 27h25a1.5 1.5 0 0 0 1.5-1.5v-6.958a1.507 1.507 0 0 0 1-1.412V6a1.5 1.5 0 0 0-1.5-1.5zM9 2.5A1.5 1.5 0 0 1 10.5 1h9A1.5 1.5 0 0 1 21 2.5v2h-1v-2a.5.5 0 0 0-.5-.5h-9a.5.5 0 0 0-.5.5v2H9v-2zm10 2h-8V3h8v1.5zm9 21a.5.5 0 0 1-.5.5h-25a.5.5 0 0 1-.5-.5v-6.787l11 1.517v1.27a1.5 1.5 0 0 0 1.5 1.5h1a1.5 1.5 0 0 0 1.5-1.5v-1.27l11-1.517V25.5zm-12-4a.5.5 0 0 1-.5.5h-1a.5.5 0 0 1-.5-.5v-3a.5.5 0 0 1 .5-.5h1a.5.5 0 0 1 .5.5v3zm13-4.37a.5.5 0 0 1-.43.495l-.139.02L17 19.22V18.5a1.5 1.5 0 0 0-1.5-1.5h-1a1.5 1.5 0 0 0-1.5 1.5v.72L1.43 17.626A.5.5 0 0 1 1 17.13V6a.5.5 0 0 1 .5-.5h27a.5.5 0 0 1 .5.5v11.13z"/>
</svg>
