<svg width="242" height="270" viewBox="0 0 242 270" fill="none" xmlns="http://www.w3.org/2000/svg">
<path d="M44.2824 81.1283L44.929 90.5175L38.8829 93.6796L36.1152 52.3849L42.1614 49.2228L74.4936 75.0886L68.4345 78.2507L61.0822 72.3792L44.2824 81.1283ZM56.0254 68.3247L42.7046 57.6809L43.8297 74.6942L56.0254 68.3247Z" fill="#F2F2F2"/>
<path d="M220.396 46.5652C221.172 47.5175 221.748 48.6164 222.09 49.7963C222.433 50.9761 222.534 52.2128 222.388 53.4325C222.12 55.9803 220.827 58.1746 218.508 60.0154C217.496 60.8795 216.321 61.5315 215.052 61.9325C213.784 62.3336 212.448 62.4754 211.123 62.3498C209.929 62.2566 208.766 61.9165 207.71 61.3511C206.654 60.7857 205.726 60.0072 204.986 59.0648C203.486 57.1551 202.973 54.784 203.447 51.9517L201.165 53.7429L198.656 50.555L219.782 33.9233L222.291 37.1112L213.664 43.901C216.553 43.651 218.797 44.539 220.396 46.5652ZM208.633 47.7485C207.285 48.7276 206.38 50.2022 206.118 51.8483C205.994 52.6002 206.031 53.3699 206.226 54.1066C206.421 54.8433 206.77 55.5303 207.25 56.1226C207.725 56.7355 208.32 57.2462 208.998 57.624C209.676 58.0017 210.423 58.2389 211.194 58.3212C212.023 58.4225 212.863 58.3507 213.662 58.1103C214.462 57.8699 215.202 57.466 215.837 56.9244C216.517 56.4249 217.092 55.7958 217.528 55.0733C217.964 54.3509 218.253 53.5493 218.378 52.7148C218.509 51.941 218.476 51.1482 218.28 50.3883C218.084 49.6284 217.729 48.9184 217.24 48.3047C216.769 47.6903 216.17 47.1858 215.484 46.8262C214.799 46.4667 214.043 46.2606 213.27 46.2224C211.585 46.1121 209.923 46.6591 208.633 47.7485Z" fill="#F2F2F2"/>
<path d="M191.575 9.05965L178.998 10.2301C179.084 10.7878 179.296 11.3184 179.619 11.7813C179.942 12.2442 180.366 12.6271 180.86 12.9007C181.908 13.5207 183.128 13.786 184.339 13.6573C186.352 13.4719 187.82 12.696 188.743 11.3294L190.87 13.2693C190.083 14.242 189.101 15.0394 187.987 15.6107C186.874 16.1819 185.653 16.5143 184.404 16.5866C182.271 16.8283 180.129 16.2143 178.448 14.8795C177.576 14.1714 176.864 13.2867 176.36 12.2836C175.855 11.2804 175.568 10.1816 175.519 9.05965C175.361 7.94773 175.444 6.81479 175.763 5.73798C176.082 4.66118 176.63 3.66576 177.368 2.81952C178.764 1.22027 180.729 0.229514 182.845 0.0583707C184.873 -0.184119 186.919 0.334301 188.587 1.51332C189.418 2.11785 190.102 2.9024 190.587 3.80831C191.071 4.71422 191.345 5.71801 191.387 6.74465L191.575 9.05965ZM178.752 7.57885L187.941 6.7188C187.923 6.13625 187.774 5.56516 187.506 5.04796C187.237 4.53076 186.855 4.08073 186.389 3.73131C185.446 3.07613 184.295 2.79284 183.156 2.93595C181.947 3.04059 180.808 3.54843 179.922 4.37795C179.484 4.77821 179.149 5.27809 178.946 5.83527C178.742 6.39245 178.676 6.99053 178.752 7.57885Z" fill="#F2F2F2"/>
<path d="M209.623 211.033C210.921 211.222 212.245 211.125 213.503 210.748C214.794 210.292 216.007 209.637 217.098 208.808L219.497 211.938C218.131 213.191 216.508 214.13 214.74 214.689C212.973 215.247 211.105 215.412 209.267 215.171C207.512 215.019 205.806 214.515 204.25 213.689C202.695 212.862 201.322 211.73 200.214 210.36C199.121 209.011 198.321 207.449 197.866 205.773C197.411 204.097 197.31 202.345 197.569 200.628C197.732 198.884 198.257 197.192 199.11 195.661C199.963 194.13 201.125 192.794 202.522 191.737C203.949 190.646 205.582 189.855 207.322 189.411C209.062 188.966 210.874 188.878 212.649 189.15C214.502 189.333 216.293 189.92 217.895 190.869C219.498 191.819 220.872 193.108 221.922 194.647L218.87 197.272C218.006 196.157 216.953 195.203 215.759 194.453C214.622 193.831 213.37 193.446 212.08 193.321C210.909 193.151 209.716 193.214 208.569 193.507C207.423 193.8 206.346 194.317 205.4 195.028C204.451 195.732 203.662 196.629 203.085 197.66C202.507 198.691 202.155 199.833 202.05 201.01C201.878 202.192 201.949 203.398 202.26 204.552C202.57 205.706 203.113 206.785 203.855 207.722C204.54 208.637 205.405 209.403 206.397 209.972C207.389 210.541 208.487 210.902 209.623 211.033Z" fill="#F2F2F2"/>
<path d="M100.029 234.978C94.868 235.041 89.843 233.322 85.8031 230.109C80.9339 226.048 79.2979 220.234 81.3219 214.175C88.2992 193.256 83.1325 182.755 80.0286 176.482C78.6512 173.695 77.6618 171.678 78.2438 169.816C78.2653 169.719 78.3065 169.629 78.3649 169.549C78.4232 169.47 78.4975 169.403 78.5829 169.354C78.6684 169.305 78.7631 169.274 78.8611 169.263C78.9591 169.252 79.0583 169.262 79.1523 169.292C79.2464 169.322 79.3332 169.371 79.4073 169.436C79.4814 169.501 79.5412 169.58 79.5829 169.67C79.6245 169.759 79.6471 169.856 79.6493 169.955C79.6514 170.053 79.6331 170.151 79.5953 170.242C79.175 171.536 80.0674 173.366 81.296 175.862C84.4775 182.328 89.8058 193.153 82.641 214.622C80.7851 220.183 82.2272 225.298 86.689 229.029C92.7869 234.111 102.635 235.062 109.613 231.234C116.926 227.218 120.146 218.76 118.666 207.424C117.515 198.52 117.637 190.663 119.041 184.061C119.965 179.204 121.953 174.611 124.86 170.611C129.549 164.416 134.838 163.11 135.064 163.058C135.155 163.037 135.249 163.034 135.34 163.049C135.432 163.064 135.52 163.097 135.599 163.146C135.678 163.194 135.746 163.259 135.801 163.334C135.855 163.409 135.894 163.495 135.915 163.585C135.936 163.676 135.939 163.769 135.924 163.861C135.909 163.953 135.876 164.041 135.827 164.12C135.779 164.198 135.714 164.267 135.639 164.321C135.564 164.375 135.478 164.414 135.388 164.436C135.336 164.436 130.299 165.729 125.921 171.549C123.168 175.391 121.29 179.79 120.418 184.436C119.067 190.864 118.957 198.533 120.082 207.237C122.17 223.364 114.844 229.966 110.292 232.456C107.134 234.137 103.606 235.003 100.029 234.978Z" fill="black"/>
<path d="M80.9788 41.6893L48.6465 140.626C47.9043 142.922 48.0995 145.418 49.1897 147.57C50.2798 149.723 52.1765 151.357 54.4663 152.117L196.276 198.449C198.572 199.193 201.07 198.999 203.224 197.909C205.378 196.818 207.013 194.921 207.773 192.629L240.105 93.6925L80.9788 41.6893Z" fill="#F4F4F4"/>
<path d="M82.8546 42.2973L50.5224 141.234C49.9368 143.034 50.0894 144.993 50.9465 146.68C51.8036 148.368 53.2953 149.646 55.0942 150.235L196.903 196.587C197.794 196.882 198.735 196.998 199.671 196.929C200.607 196.859 201.521 196.604 202.358 196.18C203.195 195.755 203.94 195.17 204.55 194.456C205.16 193.742 205.623 192.915 205.911 192.021L238.243 93.0847L82.8546 42.2973Z" fill="white"/>
<path d="M241.089 90.6986C241.833 88.402 241.638 85.9044 240.548 83.7505C239.458 81.5966 237.56 79.9612 235.269 79.2012L93.4595 32.8692C91.1639 32.1234 88.6663 32.3169 86.513 33.4075C84.3597 34.4981 82.7258 36.397 81.9686 38.689L80.9922 41.6764L240.125 93.6667L241.089 90.6986Z" fill="black"/>
<path d="M109.393 44.9937C109.544 44.5282 109.83 44.1179 110.214 43.8147C110.598 43.5116 111.064 43.3291 111.552 43.2903C112.04 43.2516 112.528 43.3583 112.956 43.597C113.383 43.8358 113.73 44.1958 113.953 44.6316C114.176 45.0674 114.265 45.5595 114.208 46.0457C114.151 46.5319 113.952 46.9905 113.635 47.3634C113.318 47.7364 112.897 48.007 112.426 48.1411C111.956 48.2752 111.456 48.2668 110.99 48.117C110.364 47.914 109.845 47.4712 109.545 46.8856C109.246 46.3001 109.191 45.6197 109.393 44.9937Z" fill="white"/>
<path d="M99.8871 44.8191C99.7875 44.8092 99.6937 44.7679 99.6191 44.7012C99.5446 44.6344 99.4932 44.5457 99.4723 44.4479C99.4514 44.35 99.4622 44.2481 99.503 44.1568C99.5439 44.0654 99.6127 43.9894 99.6995 43.9397L103.469 40.5578C103.838 40.228 104.22 40.3573 104.323 40.8423L105.364 45.7891C105.468 46.2741 105.17 46.5457 104.717 46.3905L99.8871 44.8191Z" fill="white"/>
<path d="M92.1743 37.5136L91.1021 40.796C90.9734 41.1898 91.1884 41.6133 91.5822 41.7419L94.8646 42.8142C95.2584 42.9428 95.6819 42.7278 95.8105 42.334L96.8827 39.0517C97.0114 38.6579 96.7964 38.2343 96.4026 38.1057L93.1202 37.0335C92.7264 36.9048 92.3029 37.1198 92.1743 37.5136Z" fill="white"/>
<path d="M121.554 46.6169L120.455 49.9792C120.143 50.9365 120.665 51.9661 121.623 52.2788L216.406 83.2407C217.364 83.5534 218.393 83.0308 218.706 82.0735L219.804 78.7112C220.117 77.7539 219.594 76.7243 218.637 76.4116L123.853 45.4497C122.896 45.137 121.866 45.6596 121.554 46.6169Z" fill="#EFEFEF"/>
<path d="M108.766 176.191C110.221 177.051 109.865 178.396 107.977 179.179L73.129 193.593C71.4734 194.217 69.6631 194.303 67.9558 193.838C67.6381 193.744 67.3322 193.614 67.044 193.45L0.898766 154.438C0.168057 154.005 -0.109991 153.455 0.0387371 152.912C0.191055 152.56 0.419763 152.246 0.708313 151.994C0.996862 151.741 1.33802 151.555 1.70707 151.451L36.5483 137.037C38.2027 136.407 40.0148 136.321 41.7215 136.791C42.0392 136.886 42.3451 137.016 42.6332 137.179L108.766 176.191ZM47.981 178.836L53.8978 176.392L35.727 165.671L29.7844 168.134L47.9551 178.856L47.981 178.836ZM70.4907 192.118L76.401 189.674L64.5286 182.664L58.6118 185.115L70.4907 192.118ZM86.7538 185.393L91.1187 183.583L79.576 176.78L75.2112 178.584L86.7538 185.393ZM17.9767 147.836L13.6053 149.64L24.275 155.932L28.6398 154.128L17.9767 147.836ZM79.5695 188.355L83.9409 186.544L74.7003 181.067L70.329 182.878L79.5695 188.329V188.355ZM25.3355 144.79L20.9642 146.601L29.3253 151.535L33.6901 149.724L25.3355 144.79ZM10.7601 156.896L16.6769 154.451L10.6178 150.882L4.70751 153.326L10.7601 156.896ZM27.4823 166.757L33.3927 164.313L27.3401 160.737L21.4233 163.187L27.4823 166.757ZM56.2968 183.764L62.2136 181.313L56.161 177.743L50.2442 180.188L56.2968 183.764ZM19.1212 161.829L25.038 159.379L18.9789 155.809L13.0686 158.253L19.1212 161.829ZM93.7764 182.477L98.1412 180.673L91.5584 176.793L87.1935 178.597L93.7764 182.477ZM32.3839 141.874L28.0126 143.685L34.0716 147.254L38.443 145.45L32.3839 141.874ZM50.6193 166.893L45.6789 163.963L41.3076 165.774L46.2673 168.697L50.6322 166.893H50.6193ZM38.4106 159.683L34.0393 161.493L38.9926 164.416L43.3574 162.605L38.4106 159.683ZM52.9213 168.251L48.5565 170.074L53.5098 172.997L57.8811 171.193L52.9213 168.27V168.251ZM72.3207 172.493L67.9494 174.303L72.9026 177.226L77.274 175.422L72.3207 172.493ZM67.4708 176.812L63.0995 178.623L68.0528 181.546L72.4241 179.735L67.4708 176.812ZM57.7776 163.931L53.4386 165.735L58.3984 168.658L62.7633 166.854L57.81 163.931H57.7776ZM60.1831 172.531L55.8183 174.336L60.7716 177.265L65.1365 175.454L60.1831 172.531ZM65.4145 165.742L70.3678 168.671L74.7327 166.86L69.7794 163.938L65.4145 165.742ZM31.1423 155.395L26.771 157.199L31.7243 160.122L36.0956 158.318L31.1423 155.395ZM72.6634 170.022L77.6232 172.945L81.988 171.135L77.0347 168.212L72.6634 170.022ZM51.0978 164.371L55.4627 162.567L50.5093 159.644L46.138 161.448L51.0978 164.371ZM65.0265 168.205L60.6552 170.016L65.615 172.932L69.9863 171.128L65.0265 168.205ZM84.2901 172.499L79.9511 174.31L84.9044 177.233L89.2757 175.422L84.3159 172.506L84.2901 172.499ZM43.6291 152.886L48.5888 155.848L52.9601 154.037L48.0068 151.115L43.6355 152.919L43.6291 152.886ZM60.209 158.292L55.2557 155.369L50.8844 157.174L55.8442 160.096L60.209 158.292ZM35.9792 151.082L31.6144 152.886L36.5612 155.809L40.9325 154.005L35.9792 151.082ZM36.3608 148.618L41.3141 151.535L45.6789 149.731L40.745 146.795L36.3802 148.606L36.3608 148.618ZM43.2346 155.369L38.8697 157.174L43.823 160.096L48.1944 158.286L43.2346 155.369ZM58.1074 161.461L63.1383 164.384L67.5096 162.58L62.5563 159.657L58.185 161.461H58.1074ZM56.7107 148.871L52.3458 150.681L55.7084 152.666L60.0797 150.862L56.7107 148.871ZM51.0913 145.502L46.72 147.306L50.0826 149.291L54.4539 147.487L51.0913 145.502ZM96.4599 172.266L92.0951 174.077L95.4576 176.062L99.8289 174.258L96.4599 172.266ZM101.129 179.412L105.5 177.601L102.131 175.616L97.7661 177.42L101.129 179.412ZM85.1242 165.606L80.7529 167.41L84.1219 169.395L88.4868 167.591L85.1242 165.606ZM73.7821 158.913L69.4108 160.717L72.7798 162.702L77.1446 160.898L73.7821 158.913ZM45.4202 142.178L41.0554 143.988L44.4179 145.974L48.7893 144.163L45.4202 142.178ZM62.4399 152.22L58.0686 154.024L61.4376 156.01L65.8025 154.206L62.4399 152.22ZM90.7953 168.949L86.4175 170.753L89.7801 172.745L94.1449 170.934L90.7824 168.949H90.7953ZM39.7492 138.835L35.3779 140.639L38.7469 142.624L43.1182 140.82L39.7492 138.835ZM68.111 155.563L63.7397 157.368L67.1023 159.359L71.4736 157.549L68.111 155.563ZM79.4532 162.256L75.0883 164.06L78.4509 166.052L82.8157 164.241L79.4532 162.256Z" fill="#F2F2F2"/>
<path d="M51.0846 145.528L54.4536 147.513L50.0823 149.323L46.7197 147.332L51.0846 145.528Z" fill="#C9C9C9"/>
<path d="M40.7453 146.808L45.6986 149.731L41.3338 151.541L36.374 148.619L40.7453 146.808Z" fill="#C9C9C9"/>
<path d="M55.2615 155.376L60.2148 158.299L55.8434 160.103L50.8901 157.18L55.2615 155.376Z" fill="#C9C9C9"/>
<path d="M38.4105 159.689L43.3573 162.612L38.9925 164.416L34.0327 161.493L38.4105 159.689Z" fill="#C9C9C9"/>
<path d="M62.5172 159.657L67.477 162.58L63.1056 164.384L58.1523 161.467L62.5172 159.657Z" fill="#C9C9C9"/>
<path d="M45.6658 163.97L50.619 166.893L46.2542 168.697L41.2944 165.774L45.6658 163.97Z" fill="#C9C9C9"/>
<path d="M85.1174 165.606L88.48 167.591L84.1151 169.395L80.7461 167.41L85.1174 165.606Z" fill="#C9C9C9"/>
<path d="M77.0408 168.225L81.9941 171.148L77.6292 172.952L72.6694 170.029L77.0408 168.225Z" fill="#C9C9C9"/>
<path d="M96.4596 172.299L99.8221 174.284L95.4573 176.095L92.0947 174.103L96.4596 172.299Z" fill="#C9C9C9"/>
<path d="M39.7424 138.835L43.1114 140.826L38.7401 142.631L35.3711 140.645L39.7424 138.835Z" fill="#C9C9C9"/>
<path d="M32.384 141.881L38.4431 145.45L34.0718 147.254L28.0127 143.685L32.384 141.881Z" fill="#C9C9C9"/>
<path d="M25.3352 144.797L33.6898 149.724L29.325 151.535L20.9639 146.601L25.3352 144.797Z" fill="#C9C9C9"/>
<path d="M56.7555 148.877L60.1245 150.862L55.7532 152.667L52.3906 150.681L56.7555 148.877Z" fill="#C9C9C9"/>
<path d="M17.9758 147.836L28.639 154.128L24.2741 155.932L13.6045 149.647L17.9758 147.836Z" fill="#C9C9C9"/>
<path d="M10.6174 150.882L16.6764 154.451L10.7596 156.902L4.70703 153.326L10.6174 150.882Z" fill="#C9C9C9"/>
<path d="M35.9918 151.089L40.9516 154.012L36.5803 155.816L31.627 152.893L35.9918 151.089Z" fill="#C9C9C9"/>
<path d="M48.0071 151.095L52.9539 154.018L48.589 155.822L43.6357 152.899L48.0071 151.095Z" fill="#C9C9C9"/>
<path d="M62.4328 152.22L65.7954 154.206L61.4305 156.016L58.0615 154.024L62.4328 152.22Z" fill="#C9C9C9"/>
<path d="M31.1482 155.402L36.1015 158.325L31.7302 160.135L26.7769 157.212L31.1482 155.402Z" fill="#C9C9C9"/>
<path d="M43.2535 155.37L48.2133 158.292L43.842 160.096L38.8887 157.174L43.2535 155.37Z" fill="#C9C9C9"/>
<path d="M18.9787 155.809L25.0378 159.385L19.121 161.829L13.0684 158.254L18.9787 155.809Z" fill="#C9C9C9"/>
<path d="M68.0973 155.57L71.4663 157.555L67.095 159.359L63.7324 157.374L68.0973 155.57Z" fill="#C9C9C9"/>
<path d="M73.7751 158.913L77.1377 160.898L72.7728 162.709L69.4038 160.717L73.7751 158.913Z" fill="#C9C9C9"/>
<path d="M50.5154 159.65L55.4687 162.573L51.1038 164.377L46.144 161.454L50.5154 159.65Z" fill="#C9C9C9"/>
<path d="M27.3396 160.743L33.3922 164.313L27.4754 166.757L21.4229 163.187L27.3396 160.743Z" fill="#C9C9C9"/>
<path d="M79.4465 162.263L82.8091 164.248L78.4442 166.052L75.0752 164.067L79.4465 162.263Z" fill="#C9C9C9"/>
<path d="M57.7711 163.931L62.7309 166.854L58.3596 168.665L53.4062 165.742L57.7711 163.931Z" fill="#C9C9C9"/>
<path d="M69.7789 163.938L74.7322 166.867L70.3609 168.671L65.4141 165.748L69.7789 163.938Z" fill="#C9C9C9"/>
<path d="M52.9205 168.251L57.8803 171.174L53.509 172.978L48.5557 170.055L52.9205 168.251Z" fill="#C9C9C9"/>
<path d="M65.0325 168.218L69.9922 171.141L65.6209 172.945L60.6611 170.022L65.0325 168.218Z" fill="#C9C9C9"/>
<path d="M90.7887 168.949L94.1512 170.941L89.7864 172.745L86.4238 170.76L90.7887 168.949Z" fill="#C9C9C9"/>
<path d="M60.1828 172.531L65.1361 175.454L60.7648 177.265L55.8115 174.342L60.1828 172.531Z" fill="#C9C9C9"/>
<path d="M72.2942 172.499L77.2475 175.422L72.8761 177.226L67.9229 174.303L72.2942 172.499Z" fill="#C9C9C9"/>
<path d="M35.7005 165.671L53.8712 176.392L47.9544 178.843L29.7837 168.121L35.7005 165.671Z" fill="#C9C9C9"/>
<path d="M84.296 172.506L89.2558 175.428L84.8845 177.233L79.9312 174.31L84.296 172.506Z" fill="#C9C9C9"/>
<path d="M67.4446 176.819L72.3979 179.742L68.0265 181.546L63.0732 178.623L67.4446 176.819Z" fill="#C9C9C9"/>
<path d="M56.1609 177.743L62.2135 181.319L56.2967 183.764L50.2441 180.188L56.1609 177.743Z" fill="#C9C9C9"/>
<path d="M91.5577 176.786L98.1406 180.673L93.7757 182.477L87.1929 178.591L91.5577 176.786Z" fill="#C9C9C9"/>
<path d="M79.5504 176.78L91.093 183.589L86.7282 185.393L75.1855 178.584L79.5504 176.78Z" fill="#C9C9C9"/>
<path d="M74.7004 181.1L83.941 186.551L79.5697 188.355L70.3291 182.904L74.7004 181.1Z" fill="#C9C9C9"/>
<path d="M64.5022 182.664L76.3746 189.674L70.4643 192.118L58.5854 185.115L64.5022 182.664Z" fill="#C9C9C9"/>
<path d="M45.4142 142.184L48.7832 144.17L44.4119 145.974L41.0493 143.989L45.4142 142.184Z" fill="#C9C9C9"/>
<path d="M102.131 175.642L105.5 177.627L101.129 179.438L97.7661 177.452L102.131 175.642Z" fill="#C9C9C9"/>
<path d="M107.977 179.179L73.1289 193.593C71.4734 194.217 69.6631 194.303 67.9558 193.838C67.6381 193.744 67.3321 193.614 67.044 193.45L0.898721 154.438C0.663087 154.331 0.458 154.167 0.302141 153.96C0.146282 153.753 0.0445989 153.511 0.00634766 153.255V156.727C0.00739141 157.014 0.092475 157.295 0.251069 157.534C0.409664 157.773 0.634821 157.96 0.898721 158.072L67.0181 197.085C67.3063 197.248 67.6122 197.378 67.9299 197.473C69.6366 197.942 71.4486 197.856 73.1031 197.227L107.951 182.813C109.044 182.36 109.619 181.72 109.632 181.093V177.524C109.606 178.131 109.05 178.746 107.977 179.179Z" fill="#E8E8E8"/>
<path d="M60.5903 161.422C61.7543 161.157 64.1598 159.379 65.8864 159.055C67.6129 158.732 73.9436 159.152 74.1828 160.103C74.4221 161.054 70.0378 160.413 69.2295 160.75C69.2295 161.668 69.1648 165.043 67.406 165.186C65.6471 165.328 64.4314 165.438 63.4873 164.979C62.7178 164.604 61.2047 165.05 61.2047 165.05L60.5903 161.422Z" fill="#E6885C"/>
<path d="M8.06956 178.532C8.34115 200.46 12.137 203.978 13.4497 225.227C14.5231 242.55 8.56102 255.781 7.81738 261.633H11.8007C14.73 253.873 33.3986 225.53 27.9022 178.532H8.06956Z" fill="#141414"/>
<path d="M6.88037 263.088C7.21285 262.618 7.52147 262.133 7.80507 261.633H11.7884C11.4144 262.464 11.2522 263.375 11.3163 264.284C10.2946 264.678 8.78151 263.65 6.88037 263.088Z" fill="#E6885C"/>
<path d="M6.87998 263.088C8.76818 263.65 10.2813 264.678 11.316 264.284C11.8656 264.678 19.9422 267.582 20.7634 268.164C21.5847 268.746 21.4812 269.632 20.5889 269.632C19.2956 269.632 8.56771 269.16 8.56771 269.16C8.34785 269.399 8.17327 269.632 8.17327 269.632H5.72248C5.0047 268.364 5.20517 264.543 6.87998 263.088Z" fill="#141414"/>
<path d="M8.07031 178.532C8.07031 198.514 21.1196 199.419 29.8816 218.818C35.9019 232.133 37.0917 258.115 37.3633 261.633H41.3466C43.5129 252.159 49.8242 215.992 37.3633 178.532H8.07031Z" fill="black"/>
<path d="M37.3765 263.088C37.3765 262.441 37.3765 261.633 37.3765 261.633H41.3598C41.3177 262.54 41.4767 263.445 41.8254 264.284C40.7778 264.678 39.2647 263.65 37.3765 263.088Z" fill="#E6885C"/>
<path d="M37.3762 263.088C39.2644 263.65 40.7775 264.678 41.8121 264.284C42.3618 264.678 50.4384 267.582 51.2596 268.164C52.0809 268.746 51.9774 269.632 51.085 269.632C49.7917 269.632 39.0639 269.16 39.0639 269.16C38.844 269.399 38.6694 269.632 38.6694 269.632H36.2187C35.4879 268.364 35.6884 264.543 37.3762 263.088Z" fill="black"/>
<path d="M60.5519 160.465C60.5519 160.465 53.8979 158.525 49.6624 155.37C45.7372 151.27 38.7599 130.383 30.7997 129.846L27.9998 129.568C24.4244 129.399 20.8422 129.442 17.2719 129.698C11.5491 131.735 10.2688 134.328 8.7621 144.862C7.25542 155.395 8.04431 178.532 8.04431 178.532H37.3373C38.3461 172.396 37.1498 163.013 37.2921 153.889C39.7105 156.307 42.0708 159.437 46.0347 162.127C48.5695 164.151 52.8439 165.528 61.968 165.845C61.9939 165.845 63.3583 161.894 60.5519 160.465Z" fill="#BC9800"/>
<path d="M27.7021 112.976C28.0707 115.407 29.9266 122.591 28.5492 125.229C27.4176 127.396 25.0056 127.816 21.0869 126.568C17.1683 125.32 16.8579 118.252 16.3082 116.222C15.4288 113.008 26.9261 107.841 27.7021 112.976Z" fill="#E6885C"/>
<path d="M24.7599 126.387C24.9733 127.635 25.5229 129.458 25.5229 129.458C24.9862 130.183 17.0648 131.101 17.8343 129.808C17.9966 127.287 18.0268 124.759 17.9248 122.235L24.7599 126.387Z" fill="#E6885C"/>
<path d="M17.3236 110.583C21.3069 108.695 26.4801 104.718 27.0685 105.203C27.172 105.293 26.9263 105.572 27.0685 105.681C27.2108 105.791 29.0667 103.03 30.7091 104.104C32.3516 105.177 31.498 110.518 27.7216 112.976C23.9452 115.433 27.5859 117.864 25.9046 119.229C24.2233 120.593 24.4431 125.359 21.5914 125.462C18.7397 125.566 17.1102 127.351 17.1555 125.559C17.2007 123.768 15.5065 120.237 15.6165 117.192C15.7264 114.146 15.1185 111.637 17.3236 110.583Z" fill="black"/>
<path d="M24.9412 118.284C24.8959 117.567 25.2257 116.991 25.6848 116.933C26.1439 116.875 26.5643 117.457 26.6095 118.175C26.6548 118.892 26.325 119.468 25.8594 119.526C25.3938 119.584 24.9864 118.989 24.9412 118.284Z" fill="#E6885C"/>
<path d="M37.3634 178.532C38.3722 172.396 37.1759 163.013 37.3181 153.889C39.7366 156.307 42.0968 159.437 46.0608 162.127C48.5956 164.151 52.8699 165.528 61.9941 165.845C62.0878 165.549 62.1612 165.246 62.2139 164.94C60.3775 164.481 51.693 163.983 48.7831 161.83C43.9656 158.267 36.9043 148.813 36.3805 147.836C33.9426 143.31 33.5611 144.726 34.0396 153.455C34.544 162.703 33.6904 178.532 33.6904 178.532H37.3634Z" fill="#967900"/>
<path d="M120.262 69.7655L91.8833 60.8722L90.6651 64.7597L119.043 73.6529L120.262 69.7655Z" fill="#AAAAAA"/>
<path d="M113.671 88.3361L85.2925 79.4429L84.0742 83.3303L112.453 92.2236L113.671 88.3361Z" fill="#AAAAAA"/>
<path d="M108.094 104.878L79.2344 95.8344L78.0683 99.5553L106.928 108.599L108.094 104.878Z" fill="#AAAAAA"/>
<path d="M99.3535 121.089L70.6221 112.016L69.4523 115.72L98.1837 124.794L99.3535 121.089Z" fill="#AAAAAA"/>
<path d="M173.444 126.114L148.811 118.394L147.577 122.331L172.21 130.05L173.444 126.114Z" fill="#AAAAAA"/>
<path d="M218.73 98.4144L130.518 69.3264L127.849 77.4205L216.061 106.508L218.73 98.4144Z" fill="#F2F2F2"/>
<path d="M211.96 117.534L123.208 88.2681L120.658 95.9998L209.411 125.266L211.96 117.534Z" fill="#F2F2F2"/>
<path d="M199.974 152.286L111.222 123.019L108.672 130.751L197.424 160.017L199.974 152.286Z" fill="#F2F2F2"/>
<path d="M144.788 114.738L117.22 105.647L114.671 113.379L142.238 122.47L144.788 114.738Z" fill="#F2F2F2"/>
<path d="M207.104 135.104L179.536 126.014L176.987 133.745L204.554 142.836L207.104 135.104Z" fill="#F2F2F2"/>
<path d="M143.548 151.281L119.653 143.402C118.639 143.067 117.546 143.618 117.211 144.632L115.873 148.692C115.538 149.706 116.089 150.799 117.104 151.133L140.999 159.013C142.013 159.347 143.106 158.796 143.441 157.782L144.779 153.723C145.114 152.709 144.563 151.615 143.548 151.281Z" fill="#5E5E5E"/>
</svg>
