<svg width="98" height="32" viewBox="0 0 98 32" fill="none" xmlns="http://www.w3.org/2000/svg">
<path d="M95.1905 19.8049L97.8483 21.5736C96.9857 22.842 94.9224 25.018 91.3554 25.018C86.9258 25.018 83.627 21.5969 83.627 17.2449C83.627 12.6137 86.9608 9.47192 90.9824 9.47192C95.0273 9.47192 97.009 12.6835 97.6501 14.4173L97.9998 15.3017L87.5786 19.6071C88.3713 21.1664 89.6069 21.9576 91.3554 21.9576C93.104 21.9576 94.3163 21.0965 95.1905 19.8049ZM87.0191 17.0006L93.9782 14.1148C93.5935 13.149 92.4512 12.4624 91.0873 12.4624C89.3505 12.4624 86.9375 13.9984 87.0191 17.0006Z" fill="#FF302F"/>
<path d="M78.1621 1.5481H81.5193V24.3086H78.1621V1.5481Z" fill="#20B15A"/>
<path d="M72.8137 10.0772H76.0543V23.901C76.0543 29.6377 72.6622 31.9999 68.6522 31.9999C64.8754 31.9999 62.6023 29.4632 61.7514 27.4035L64.7239 26.1701C65.2601 27.4384 66.554 28.9395 68.6522 28.9395C71.2284 28.9395 72.8137 27.3454 72.8137 24.3665V23.2494H72.6971C71.9278 24.1803 70.459 25.0181 68.5939 25.0181C64.7005 25.0181 61.1335 21.632 61.1335 17.2684C61.1335 12.8815 64.7005 9.46045 68.5939 9.46045C70.4474 9.46045 71.9278 10.2866 72.6971 11.1942H72.8137V10.0772ZM73.0468 17.2684C73.0468 14.5222 71.2167 12.5208 68.8853 12.5208C66.5307 12.5208 64.549 14.5222 64.549 17.2684C64.549 19.9796 66.5307 21.9461 68.8853 21.9461C71.2167 21.9578 73.0468 19.9796 73.0468 17.2684Z" fill="#3686F7"/>
<path d="M41.3445 17.2107C41.3445 21.6906 37.8475 24.9837 33.5578 24.9837C29.268 24.9837 25.771 21.679 25.771 17.2107C25.771 12.7074 29.268 9.42603 33.5578 9.42603C37.8475 9.42603 41.3445 12.7074 41.3445 17.2107ZM37.9407 17.2107C37.9407 14.418 35.9124 12.498 33.5578 12.498C31.2031 12.498 29.1748 14.418 29.1748 17.2107C29.1748 19.9801 31.2031 21.9234 33.5578 21.9234C35.9124 21.9234 37.9407 19.9801 37.9407 17.2107Z" fill="#FF302F"/>
<path d="M59.0259 17.2449C59.0259 21.7249 55.5289 25.018 51.2392 25.018C46.9494 25.018 43.4524 21.7249 43.4524 17.2449C43.4524 12.7417 46.9494 9.47192 51.2392 9.47192C55.5289 9.47192 59.0259 12.7301 59.0259 17.2449ZM55.6105 17.2449C55.6105 14.4522 53.5822 12.5323 51.2275 12.5323C48.8728 12.5323 46.8445 14.4522 46.8445 17.2449C46.8445 20.0144 48.8728 21.9576 51.2275 21.9576C53.5938 21.9576 55.6105 20.0027 55.6105 17.2449Z" fill="#FFBA40"/>
<path d="M12.3213 21.6089C7.43706 21.6089 3.61362 17.6759 3.61362 12.8003C3.61362 7.92468 7.43706 3.99162 12.3213 3.99162C14.9557 3.99162 16.8791 5.02725 18.3012 6.35378L20.6443 4.0149C18.6626 2.11819 16.0165 0.675293 12.3213 0.675293C5.63025 0.675293 0 6.12106 0 12.8003C0 19.4795 5.63025 24.9252 12.3213 24.9252C15.9349 24.9252 18.6626 23.7383 20.7958 21.5275C22.9873 19.3398 23.6634 16.2679 23.6634 13.7777C23.6634 12.9981 23.5701 12.1952 23.4652 11.6017H12.3213V14.8366H20.2596C20.0264 16.8613 19.3853 18.246 18.4411 19.1886C17.2987 20.3406 15.4919 21.6089 12.3213 21.6089Z" fill="#3686F7"/>
</svg>
