<svg width="139" height="60" viewBox="0 0 139 60" fill="none" xmlns="http://www.w3.org/2000/svg">
<path d="M108.585 12.8516V14.4766H100.39L100.304 13.2266L105.125 5.625H106.773L104.992 8.64844L102.406 12.8516H108.585ZM107.234 5.625V17H105.164V5.625H107.234ZM110.023 15.9922C110.023 15.6797 110.13 15.4167 110.343 15.2031C110.557 14.9896 110.846 14.8828 111.21 14.8828C111.575 14.8828 111.864 14.9896 112.078 15.2031C112.291 15.4167 112.398 15.6797 112.398 15.9922C112.398 16.2995 112.291 16.5599 112.078 16.7734C111.864 16.9818 111.575 17.0859 111.21 17.0859C110.846 17.0859 110.557 16.9818 110.343 16.7734C110.13 16.5599 110.023 16.2995 110.023 15.9922ZM122.078 15.375V17H114.375V15.6094L118.07 11.6172C118.455 11.1797 118.76 10.7995 118.984 10.4766C119.208 10.1536 119.367 9.86198 119.46 9.60156C119.559 9.33594 119.609 9.08333 119.609 8.84375C119.609 8.49479 119.546 8.1901 119.421 7.92969C119.296 7.66406 119.114 7.45833 118.875 7.3125C118.64 7.16667 118.351 7.09375 118.007 7.09375C117.627 7.09375 117.302 7.18229 117.031 7.35938C116.765 7.53125 116.562 7.77083 116.421 8.07812C116.286 8.38542 116.218 8.73698 116.218 9.13281H114.148C114.148 8.46094 114.304 7.84896 114.617 7.29688C114.929 6.73958 115.377 6.29427 115.96 5.96094C116.544 5.6276 117.236 5.46094 118.039 5.46094C118.82 5.46094 119.481 5.59115 120.023 5.85156C120.565 6.10677 120.976 6.47135 121.257 6.94531C121.539 7.41927 121.679 7.98438 121.679 8.64062C121.679 9.00521 121.619 9.36458 121.5 9.71875C121.38 10.0729 121.21 10.4245 120.992 10.7734C120.778 11.1172 120.523 11.4661 120.226 11.8203C119.929 12.1745 119.598 12.5365 119.234 12.9062L117.015 15.375H122.078ZM128.515 5.625L124.218 17.9766H122.648L126.945 5.625H128.515ZM131.656 11.7656L130.007 11.3672L130.64 5.625H136.898V7.33594H132.351L132.054 9.99219C132.216 9.89323 132.45 9.79427 132.757 9.69531C133.07 9.59115 133.421 9.53906 133.812 9.53906C134.354 9.53906 134.838 9.6276 135.265 9.80469C135.692 9.97656 136.054 10.2266 136.351 10.5547C136.653 10.8828 136.88 11.2839 137.031 11.7578C137.187 12.2266 137.265 12.7578 137.265 13.3516C137.265 13.8724 137.187 14.362 137.031 14.8203C136.88 15.2734 136.648 15.6771 136.335 16.0312C136.023 16.3802 135.63 16.6562 135.156 16.8594C134.682 17.0573 134.125 17.1562 133.484 17.1562C133 17.1562 132.533 17.0859 132.085 16.9453C131.643 16.7995 131.244 16.5885 130.89 16.3125C130.536 16.0312 130.252 15.6875 130.039 15.2812C129.83 14.875 129.716 14.4089 129.695 13.8828H131.734C131.77 14.2318 131.864 14.5286 132.015 14.7734C132.166 15.0182 132.364 15.2057 132.609 15.3359C132.859 15.4661 133.148 15.5312 133.476 15.5312C133.773 15.5312 134.028 15.4766 134.242 15.3672C134.46 15.2526 134.64 15.0938 134.781 14.8906C134.921 14.6875 135.026 14.4479 135.093 14.1719C135.161 13.8958 135.195 13.5938 135.195 13.2656C135.195 12.9479 135.156 12.6589 135.078 12.3984C135 12.1328 134.88 11.9036 134.718 11.7109C134.557 11.5182 134.354 11.3698 134.109 11.2656C133.869 11.1615 133.588 11.1094 133.265 11.1094C132.833 11.1094 132.5 11.1745 132.265 11.3047C132.036 11.4349 131.833 11.5885 131.656 11.7656Z" fill="#606162"/>
<path d="M44.6331 3.59487C44.4498 3.11612 43.7725 3.11612 43.5893 3.59487L42.1441 7.37047C42.0651 7.57709 41.8715 7.7176 41.6506 7.72882L37.6087 7.93396C37.0962 7.95997 36.8868 8.6052 37.2864 8.9272L40.434 11.4635C40.6066 11.6025 40.6807 11.8304 40.6229 12.0443L39.5695 15.9442C39.4358 16.4393 39.9838 16.838 40.4137 16.5583L43.8065 14.3514C43.9917 14.2309 44.2306 14.2309 44.4159 14.3514L47.8086 16.5583C48.2385 16.838 48.7865 16.4393 48.6528 15.9442L47.5994 12.0443C47.5417 11.8304 47.6158 11.6025 47.7883 11.4635L50.9359 8.9272C51.3355 8.6052 51.1262 7.95997 50.6136 7.93396L46.5718 7.72882C46.3508 7.7176 46.1573 7.57709 46.0782 7.37047L44.6331 3.59487Z" fill="#FCD209"/>
<path d="M62.5012 3.59487C62.318 3.11612 61.6407 3.11612 61.4574 3.59487L60.0123 7.37047C59.9332 7.57709 59.7397 7.7176 59.5187 7.72882L55.4769 7.93396C54.9643 7.95997 54.755 8.6052 55.1546 8.9272L58.3022 11.4635C58.4747 11.6025 58.5488 11.8304 58.491 12.0443L57.4377 15.9442C57.304 16.4393 57.852 16.838 58.2819 16.5583L61.6746 14.3514C61.8599 14.2309 62.0988 14.2309 62.284 14.3514L65.6768 16.5583C66.1067 16.838 66.6547 16.4393 66.521 15.9442L65.4676 12.0443C65.4098 11.8304 65.4839 11.6025 65.6565 11.4635L68.8041 8.9272C69.2037 8.6052 68.9943 7.95997 68.4818 7.93396L64.4399 7.72882C64.219 7.7176 64.0254 7.57709 63.9463 7.37047L62.5012 3.59487Z" fill="#FCD209"/>
<path d="M26.7654 3.59487C26.5821 3.11612 25.9048 3.11612 25.7216 3.59487L24.2765 7.37047C24.1974 7.57709 24.0038 7.7176 23.7829 7.72882L19.741 7.93396C19.2285 7.95997 19.0191 8.6052 19.4187 8.9272L22.5663 11.4635C22.7389 11.6025 22.813 11.8304 22.7552 12.0443L21.7019 15.9442C21.5681 16.4393 22.1162 16.838 22.5461 16.5583L25.9388 14.3514C26.124 14.2309 26.3629 14.2309 26.5482 14.3514L29.9409 16.5583C30.3708 16.838 30.9188 16.4393 30.7851 15.9442L29.7318 12.0443C29.674 11.8304 29.7481 11.6025 29.9206 11.4635L33.0682 8.9272C33.4679 8.6052 33.2585 7.95997 32.7459 7.93396L28.7041 7.72882C28.4831 7.7176 28.2896 7.57709 28.2105 7.37047L26.7654 3.59487Z" fill="#FCD209"/>
<path d="M8.89722 3.59487C8.71398 3.11612 8.03666 3.11612 7.85342 3.59487L6.40831 7.37047C6.32922 7.57709 6.13568 7.7176 5.91473 7.72882L1.87287 7.93396C1.36032 7.95997 1.15095 8.6052 1.55057 8.9272L4.69817 11.4635C4.87072 11.6025 4.94482 11.8304 4.88703 12.0443L3.83369 15.9442C3.69996 16.4393 4.24799 16.838 4.67789 16.5583L8.07061 14.3514C8.25588 14.2309 8.49476 14.2309 8.68003 14.3514L12.0727 16.5583C12.5026 16.838 13.0507 16.4393 12.9169 15.9442L11.8636 12.0443C11.8058 11.8304 11.8799 11.6025 12.0525 11.4635L15.2001 8.9272C15.5997 8.6052 15.3903 7.95997 14.8778 7.93396L10.8359 7.72882C10.615 7.7176 10.4214 7.57709 10.3423 7.37047L8.89722 3.59487Z" fill="#FCD209"/>
<path d="M79.8979 6.42105V12.5851L82.3916 14.1064L81.7385 11.2614L83.9354 9.3648L81.0458 9.10797L79.8979 6.42105ZM79.8979 14.4423L76.6124 16.418C76.4673 16.5101 76.3156 16.5497 76.1572 16.5365C75.9989 16.5233 75.8604 16.4706 75.7416 16.3784C75.6229 16.2862 75.5305 16.1711 75.4645 16.0331C75.3985 15.8945 75.3854 15.7396 75.4249 15.5684L76.2958 11.8344L73.3864 9.32529C73.2544 9.20675 73.1721 9.07161 73.1394 8.91988C73.1061 8.76868 73.1159 8.62064 73.1687 8.47575C73.2215 8.33087 73.3006 8.21233 73.4062 8.12013C73.5117 8.02793 73.6569 7.96866 73.8416 7.94232L77.6812 7.60646L79.1656 4.08976C79.2315 3.93171 79.3339 3.81317 79.4727 3.73414C79.611 3.65511 79.7527 3.6156 79.8979 3.6156C80.043 3.6156 80.185 3.65511 80.3238 3.73414C80.462 3.81317 80.5642 3.93171 80.6301 4.08976L82.1145 7.60646L85.9541 7.94232C86.1388 7.96866 86.284 8.02793 86.3895 8.12013C86.4951 8.21233 86.5742 8.33087 86.627 8.47575C86.6798 8.62064 86.6898 8.76868 86.6571 8.91988C86.6239 9.07161 86.5413 9.20675 86.4093 9.32529L83.4999 11.8344L84.3708 15.5684C84.4104 15.7396 84.3972 15.8945 84.3312 16.0331C84.2652 16.1711 84.1729 16.2862 84.0541 16.3784C83.9354 16.4706 83.7968 16.5233 83.6385 16.5365C83.4801 16.5497 83.3284 16.5101 83.1833 16.418L79.8979 14.4423Z" fill="#FCD209"/>
<path d="M109.033 48.6879L111.486 50.3233C110.69 51.496 108.785 53.508 105.493 53.508C101.405 53.508 98.3599 50.3448 98.3599 46.3209C98.3599 42.0389 101.437 39.1339 105.149 39.1339C108.882 39.1339 110.711 42.1034 111.303 43.7065L111.626 44.5242L102.007 48.505C102.739 49.9467 103.879 50.6784 105.493 50.6784C107.107 50.6784 108.226 49.8822 109.033 48.6879ZM101.491 46.095L107.914 43.4268C107.559 42.5338 106.504 41.899 105.246 41.899C103.643 41.899 101.415 43.3192 101.491 46.095Z" fill="#FF302F"/>
<path d="M94.4802 31.8069H97.5788V52.8516H94.4802V31.8069Z" fill="#20B15A"/>
<path d="M90.7098 39.6934H93.7008V52.4751C93.7008 57.7793 90.5699 59.9634 86.8688 59.9634C83.3828 59.9634 81.2848 57.618 80.4994 55.7136L83.243 54.5731C83.7379 55.7459 84.9322 57.1338 86.8688 57.1338C89.2465 57.1338 90.7098 55.6598 90.7098 52.9055V51.8726H90.6022C89.8921 52.7334 88.5364 53.508 86.815 53.508C83.2215 53.508 79.9292 50.3771 79.9292 46.3425C79.9292 42.2863 83.2215 39.1232 86.815 39.1232C88.5257 39.1232 89.8921 39.8871 90.6022 40.7263H90.7098V39.6934ZM90.9249 46.3425C90.9249 43.8034 89.2358 41.9528 87.084 41.9528C84.9106 41.9528 83.0816 43.8034 83.0816 46.3425C83.0816 48.8493 84.9106 50.6676 87.084 50.6676C89.2358 50.6784 90.9249 48.8493 90.9249 46.3425Z" fill="#3686F7"/>
<path d="M63.9949 46.2886C63.9949 50.4309 60.7672 53.4757 56.8079 53.4757C52.8486 53.4757 49.6208 50.4201 49.6208 46.2886C49.6208 42.1249 52.8486 39.0908 56.8079 39.0908C60.7672 39.0908 63.9949 42.1249 63.9949 46.2886ZM60.8533 46.2886C60.8533 43.7064 58.9812 41.9312 56.8079 41.9312C54.6346 41.9312 52.7625 43.7064 52.7625 46.2886C52.7625 48.8493 54.6346 50.646 56.8079 50.646C58.9812 50.646 60.8533 48.8493 60.8533 46.2886Z" fill="#FF302F"/>
<path d="M79.1492 46.3209C79.1492 50.4632 75.9215 53.508 71.9622 53.508C68.0029 53.508 64.7751 50.4632 64.7751 46.3209C64.7751 42.1572 68.0029 39.1339 71.9622 39.1339C75.9215 39.1339 79.1492 42.1464 79.1492 46.3209ZM75.9968 46.3209C75.9968 43.7388 74.1248 41.9635 71.9514 41.9635C69.7781 41.9635 67.906 43.7388 67.906 46.3209C67.906 48.8816 69.7781 50.6784 71.9514 50.6784C74.1355 50.6784 75.9968 48.8708 75.9968 46.3209Z" fill="#FFBA40"/>
<path d="M38.3723 50.3555C33.8643 50.3555 30.3353 46.719 30.3353 42.2109C30.3353 37.7029 33.8643 34.0663 38.3723 34.0663C40.8038 34.0663 42.5791 35.0239 43.8917 36.2504L46.0543 34.0878C44.2252 32.3341 41.7829 31 38.3723 31C32.1966 31 27 36.0352 27 42.2109C27 48.3866 32.1966 53.4218 38.3723 53.4218C41.7076 53.4218 44.2252 52.3244 46.1941 50.2802C48.2168 48.2575 48.8409 45.4171 48.8409 43.1147C48.8409 42.3938 48.7548 41.6514 48.6579 41.1027H38.3723V44.0938H45.6992C45.484 45.9658 44.8923 47.2461 44.0208 48.1176C42.9664 49.1828 41.2988 50.3555 38.3723 50.3555Z" fill="#3686F7"/>
</svg>
