<svg width="148" height="59" viewBox="0 0 148 59" fill="none" xmlns="http://www.w3.org/2000/svg">
<path d="M105.864 30.1119C100.791 37.7081 110.796 40.2777 116.608 40.688L116.08 43.3255L121.188 40.3363C127.706 37.6987 131.992 32.4564 132.99 30.1119C126.062 26.9469 110.937 22.5158 105.864 30.1119Z" fill="#8ABD44"/>
<path d="M135.104 43.2714C128.481 42.7087 126.004 39.7547 125.593 38.348L127.882 35.8863L142.679 33.2487C141.622 31.4318 140.776 28.888 145.849 33.2487C152.191 38.6997 142.679 42.622 140.741 43.2714C139.272 43.7639 135.398 44.6148 133.695 45.6112L135.104 43.2714Z" fill="#F19725"/>
<path d="M136.69 26.6209C131.194 24.3702 127.824 27.5587 126.826 29.4343C124.184 34.3577 132.11 36.9952 135.457 37.6986C138.804 38.4019 142.151 35.2369 143.208 33.6543C144.265 32.0718 143.56 29.4343 136.69 26.6209Z" fill="white"/>
<path fill-rule="evenodd" clip-rule="evenodd" d="M128.378 24.9045C124.881 26.0506 122.586 28.2573 122.606 30.4549C122.62 31.9115 123.863 34.0972 125.457 35.4655L127.002 36.792L125.945 37.6431C125.364 38.1108 124.334 38.6724 123.655 38.8908C122.977 39.1089 121.075 40.0847 119.428 41.0589C115.977 43.1007 116.093 43.0205 116.291 43.2181C116.374 43.3008 117.629 42.6442 119.08 41.7591C120.53 40.8735 122.488 39.8277 123.43 39.4352C125.005 38.7786 125.168 38.7681 125.469 39.3037C125.971 40.1997 128.55 41.8308 130.701 42.6136C133.033 43.4619 135.035 43.8751 134.774 43.4541C134.67 43.286 133.878 43.0427 133.014 42.9132C131.029 42.6161 127.623 40.9316 126.372 39.6283L125.414 38.6299L126.48 37.8432L127.546 37.0565L129.74 37.814C130.947 38.2304 132.138 38.6306 132.387 38.703C132.743 38.8068 132.725 39.0565 132.299 39.8783C132.002 40.4526 131.758 40.9984 131.758 41.0909C131.758 41.1837 133.066 40.7737 134.665 40.18C136.263 39.5861 138.395 38.9499 139.401 38.7663C141.811 38.3267 144.725 36.5385 145.574 34.9788C147.39 31.6418 144.558 27.631 138.841 25.4439C136.351 24.4912 130.552 24.1923 128.378 24.9045ZM132.11 27.9791C132.11 28.1912 131.861 29.2198 131.557 30.265C131.134 31.7167 130.843 32.1654 130.324 32.1654C129.723 32.1654 129.644 31.9031 129.644 29.8796V27.5937H130.877C131.556 27.5937 132.11 27.7671 132.11 27.9791ZM135.986 28.4089C135.986 28.6642 135.742 29.6928 135.443 30.6947C135.03 32.0867 134.738 32.5171 134.21 32.5171C133.595 32.5171 133.52 32.2678 133.52 30.2312V27.9454H134.753C135.538 27.9454 135.986 28.1135 135.986 28.4089ZM140.426 29.5842C142.127 30.6969 141.336 32.6553 138.89 33.384C137.764 33.7195 137.403 32.6483 138.406 31.9474C139.391 31.2581 139.354 30.8164 138.276 30.4071C137.307 30.0396 137.296 30.0181 137.619 29.1787C137.875 28.5112 139.043 28.6797 140.426 29.5842ZM130.496 32.7306C131.434 33.09 131.186 34.2755 130.173 34.2755C129.468 34.2755 129.292 34.0996 129.292 33.3963C129.292 32.4921 129.53 32.3606 130.496 32.7306ZM134.865 33.8394C134.957 34.4801 134.809 34.6271 134.073 34.6271C133.43 34.6271 133.167 34.4404 133.167 33.9825C133.167 32.6194 134.673 32.4925 134.865 33.8394ZM104.307 34.1288C104.324 34.5385 104.407 34.6219 104.52 34.3416C104.622 34.0877 104.609 33.7842 104.492 33.6674C104.375 33.5507 104.292 33.7582 104.307 34.1288ZM139.503 34.3634C139.493 35.1691 138.882 35.7873 138.311 35.5686C138.001 35.4497 137.747 35.0312 137.747 34.638C137.747 34.1105 137.978 33.9238 138.628 33.9238C139.112 33.9238 139.506 34.1218 139.503 34.3634ZM105.286 36.2832C106.417 38.4178 110.481 40.2543 114.496 40.4459L117.138 40.5722L114.55 40.2198C110.977 39.7331 108.32 38.6612 106.455 36.9535C105.426 36.0117 105.018 35.7775 105.286 36.2832ZM147.287 37.9972C147.304 38.4069 147.387 38.4903 147.5 38.21C147.602 37.9561 147.589 37.6526 147.472 37.5358C147.355 37.4191 147.272 37.6266 147.287 37.9972ZM146.065 40.1491C144.883 41.534 143.535 42.2943 141.148 42.9234C138.994 43.4907 133.882 45.6222 133.876 45.9552C133.874 46.0931 135.102 45.6802 136.605 45.0377C138.109 44.3952 140.289 43.5962 141.449 43.2614C144.042 42.5144 145.604 41.586 146.587 40.2089C147.629 38.7477 147.294 38.7094 146.065 40.1491ZM20.6092 39.7795C19.9286 40.3183 19.9378 40.3299 20.8808 40.1115C21.4174 39.987 22.1706 40.0527 22.5542 40.2578C23.324 40.6692 23.491 40.282 22.8287 39.6209C22.2569 39.0501 21.4579 39.1071 20.6092 39.7795ZM27.3909 39.5787C26.4591 40.1203 26.6433 40.6499 27.6107 40.2103C28.2174 39.9342 28.6521 39.9395 29.1961 40.23C30.0828 40.704 30.1589 40.5177 29.3916 39.7514C28.7546 39.1159 28.2607 39.073 27.3909 39.5787ZM75.5249 41.2825C73.6042 41.5966 72.2697 42.5116 71.681 43.9183C71.1103 45.2821 71.3276 46.3575 72.4835 47.8862C73.676 49.4628 73.4333 50.2766 71.7715 50.2766C71.0493 50.2766 70.4585 50.2878 70.4585 50.3019C70.4589 50.3156 70.7118 51.0682 71.0211 51.9741C71.675 53.8903 72.5603 54.2948 74.6995 53.6551C77.4026 52.8466 78.2911 50.2256 76.6314 47.9548C74.6367 45.2248 74.5624 43.9211 76.4176 44.193C77.3632 44.3315 77.4516 44.2447 77.6542 42.9801C77.8676 41.6472 77.7063 40.9133 77.2198 41.0012C77.0859 41.0255 76.3232 41.1521 75.5249 41.2825ZM4.61647 41.6405C3.95838 41.7485 3.28691 42.0738 3.1245 42.3639C2.84971 42.8545 0 52.6127 0 53.0625C0 53.1743 0.856076 53.2658 1.90239 53.2658H3.80443L4.42799 50.5403L5.05155 47.8149L5.54089 49.4853C5.9802 50.9855 6.13485 51.1557 7.05928 51.1557C7.90971 51.1557 8.22749 50.8962 8.88839 49.6611L9.6881 48.1665L9.78956 51.0101L9.89102 53.8534L11.4661 53.615C12.3328 53.4838 13.1209 53.2971 13.2177 53.2004C13.4728 52.9458 12.6946 42.5809 12.4011 42.3242C12.2651 42.2053 11.6342 41.9349 10.9983 41.7232L9.8424 41.3381L8.97259 43.3015C8.49417 44.3811 8.10277 45.4351 8.10277 45.6429C8.10277 46.4191 7.47181 45.3138 6.88595 43.5111C6.5569 42.4979 6.18065 41.6184 6.0503 41.5568C5.9196 41.4953 5.27455 41.5329 4.61647 41.6405ZM37.9263 41.5688L36.2194 41.7017L36.4723 45.8135C36.7616 50.5196 37.345 52.3634 38.7785 53.1033C40.1845 53.8292 42.5857 53.7476 43.9315 52.9282C45.5541 51.9407 46.1245 50.553 46.5029 46.6719C47.0267 41.2948 47.1261 41.6606 45.1444 41.6606H43.4333L43.2399 45.2652C43.0032 49.6734 42.833 50.1728 41.6137 50.0318L40.69 49.9249L40.591 45.6169C40.5188 42.4737 40.3761 41.3261 40.0626 41.3722C39.8265 41.407 38.8651 41.4957 37.9263 41.5688ZM93.2182 41.5695L91.4933 41.7035L91.735 45.99C92.0852 52.1921 92.9723 53.6023 96.5287 53.6111C99.7134 53.6189 101.228 51.7902 101.62 47.4632C101.743 46.1092 101.93 44.2496 102.037 43.331L102.232 41.6606H100.492H98.7531L98.4335 45.5821C98.1013 49.6583 97.7152 50.4957 96.4004 49.9921C95.9111 49.8043 95.8241 49.1329 95.8241 45.5399C95.8241 42.3558 95.7152 41.3247 95.3837 41.3722C95.1417 41.407 94.1672 41.496 93.2182 41.5695ZM19.9867 42.276C18.7354 43.662 18.7946 46.0034 20.1146 47.3211L20.8347 48.0399L21.6908 47.1182C22.6335 46.1026 22.7142 45.6626 22.2034 44.321C21.8327 43.3486 20.3122 43.0377 19.9402 43.8585C19.8307 44.1005 19.7778 43.9985 19.8229 43.6324C19.9363 42.71 20.8544 42.2166 21.9479 42.4909C23.064 42.7701 23.7584 44.7254 23.2324 46.1064C23.0503 46.5847 23.0418 46.8893 23.2134 46.7834C23.7947 46.4247 23.9895 44.7613 23.591 43.5568C22.9798 41.7074 21.1024 41.0402 19.9867 42.276ZM27.2073 41.8959C26.5253 42.1698 25.7175 43.9545 25.7175 45.1868C25.7175 46.3487 27.3486 48.3677 28.2445 48.3146C28.5704 48.2952 28.5852 48.2355 28.2938 48.1169C28.0092 48.0012 28.0934 47.729 28.558 47.2655C30.006 45.8198 28.7314 42.6885 27.1069 43.7013C26.2854 44.2134 26.1984 43.6926 26.9755 42.9164C28.1677 41.7267 29.7777 42.6861 30.303 44.8991C30.5693 46.0217 30.5785 46.027 30.6137 45.0718C30.6979 42.774 28.9889 41.1806 27.2073 41.8959ZM59.1855 46.0073C59.1855 48.3983 59.2873 51.0963 59.412 52.0029L59.6382 53.6519L61.2615 53.5468L62.8846 53.4416L62.9899 51.6326C63.0882 49.9386 63.1594 49.8145 64.1102 49.6752L65.1255 49.5264L65.0617 51.4839L64.9983 53.4416L66.8479 53.5478L68.6974 53.6544V49.6407C68.6974 47.4333 68.7957 44.9104 68.9162 44.0344L69.135 42.4417L67.5215 42.3133L65.908 42.1853L65.6768 44.0333C65.4637 45.7351 65.358 45.9042 64.3413 46.1683L63.2369 46.4553L63.1333 44.0579L63.0297 41.6606H61.1076H59.1855V46.0073ZM79.739 46.1444C79.8648 48.6107 79.9687 51.3006 79.9694 52.1228L79.9708 53.6174H81.7323H83.4938V51.723C83.4938 49.8725 83.5191 49.825 84.5887 49.6685L85.6836 49.5082L85.4501 51.2662C85.177 53.3199 85.4349 53.6041 87.579 53.6122L89.0223 53.6174L89.2524 49.3422C89.6487 41.9873 89.7364 42.455 87.9337 42.3115L86.3847 42.1881L86.2205 43.8962C86.0483 45.6851 85.6061 46.2179 84.2864 46.2271C83.5452 46.232 83.4938 46.0843 83.4938 43.9465V41.6606H81.5019H79.5097L79.739 46.1444ZM48.5613 44.1539C48.6751 46.1652 48.7294 46.2826 49.4421 46.0604C49.8602 45.9302 50.5359 45.7435 50.9439 45.645L51.6858 45.4664L50.996 49.5644C50.6166 51.8186 50.3918 53.7483 50.4965 53.8531C50.6015 53.9575 51.6481 53.9318 52.8227 53.7957C55.3095 53.5077 55.2288 53.7708 54.4725 48.4303C54.2192 46.641 54.0723 45.1773 54.1466 45.1773C54.2206 45.1773 54.8921 45.4882 55.6386 45.8683L56.996 46.5597L57.2052 45.7804C57.3201 45.3521 57.4166 44.3287 57.4191 43.5069L57.424 42.0123L52.9322 42.0116L48.4405 42.0109L48.5613 44.1539ZM103.797 44.0344C103.922 45.1467 104.077 46.1173 104.141 46.1919C104.204 46.2661 104.742 46.1261 105.336 45.8807C105.93 45.6352 106.512 45.5304 106.629 45.6478C106.747 45.7653 106.561 47.6109 106.217 49.7491C105.872 51.8872 105.675 53.7212 105.779 53.8246C105.882 53.928 106.934 53.903 108.117 53.7694C110.594 53.4898 110.465 53.8745 109.756 48.8758C109.482 46.9448 109.311 45.3116 109.377 45.2466C109.442 45.1815 110.124 45.4485 110.893 45.8399L112.291 46.5516L112.512 44.9364C112.947 41.7742 113.302 42.0123 108.151 42.0123H103.569L103.797 44.0344ZM21.1377 46.0565C21.1377 46.3466 20.9094 46.584 20.63 46.584C20.0413 46.584 19.6443 46.0822 19.973 45.7537C20.394 45.3335 21.1377 45.5269 21.1377 46.0565ZM27.6741 45.9113C28.037 46.4978 27.2207 47.1702 26.7346 46.6849C26.328 46.2791 26.5824 45.529 27.1267 45.529C27.2975 45.529 27.5438 45.701 27.6741 45.9113ZM29.4539 47.2339L28.7867 48.1665L29.6103 47.3851C30.0638 46.9554 30.3639 46.5355 30.2776 46.4525C30.1916 46.3691 29.821 46.7208 29.4539 47.2339ZM117.353 47.4266C115.067 48.6912 114.968 52.5666 117.197 53.5802C118.508 54.1766 119.683 53.736 119.852 52.5839C119.97 51.7824 119.882 51.6386 119.357 51.7754C118.56 51.9836 117.666 51.275 117.666 50.4345C117.666 49.5082 118.68 48.6328 119.465 48.8815C119.916 49.0243 120.132 48.9233 120.132 48.5706C120.132 46.9522 119.03 46.4985 117.353 47.4266ZM121.823 48.0069C120.841 48.9884 120.765 49.2296 120.924 50.8857C121.145 53.1786 122.14 54.1341 124 53.8369C125.723 53.5619 126.474 52.5178 126.474 50.3975C126.474 47.1878 123.946 45.8884 121.823 48.0069ZM129.387 47.1664C129.019 47.3151 128.633 48.3997 127.308 53.002C127.167 53.4915 127.349 53.6174 128.195 53.6174C129.134 53.6174 129.287 53.4711 129.492 52.3827C129.75 51.0094 130.349 50.3687 130.349 51.4659C130.349 52.5375 131.09 52.7696 131.783 51.915C132.651 50.8459 132.815 50.9553 132.815 52.6001C132.815 53.7725 132.92 54.0043 133.372 53.8309C133.679 53.7135 134.098 53.6174 134.305 53.6174C134.56 53.6174 134.605 52.6373 134.445 50.5625C134.316 48.8822 134.173 47.4776 134.129 47.441C134.084 47.4044 133.723 47.2754 133.327 47.1541C132.733 46.9726 132.518 47.1678 132.117 48.2534L131.63 49.5732L131.118 48.2544C130.624 46.9831 130.318 46.7904 129.387 47.1664ZM124.595 50.2491C124.478 50.5544 124.055 50.8041 123.655 50.8041C122.647 50.8041 122.322 49.7659 123.142 49.1674C123.7 48.7598 123.876 48.7633 124.304 49.1909C124.582 49.4677 124.713 49.9442 124.595 50.2491ZM112.788 52.1703C112.074 52.6215 112.453 53.7775 113.356 53.9058C114.303 54.0405 114.767 53.1371 114.14 52.382C113.641 51.7828 113.448 51.7525 112.788 52.1703Z" fill="#3D6CB4"/>
<ellipse cx="24.6587" cy="46.6663" rx="10.5688" ry="12.3085" fill="#8BBF46"/>
<ellipse cx="24.6587" cy="46.6664" rx="7.39818" ry="10.5502" fill="white"/>
<path d="M22.4511 42.4462C22.4511 41.6883 22.2694 40.9555 21.9392 40.3811C21.6089 39.8068 21.152 39.4289 20.6514 39.3163C20.1509 39.2036 19.64 39.3637 19.2115 39.7673C18.7831 40.171 18.4657 40.7914 18.3169 41.5159C18.4376 40.9281 19.0764 40.6003 19.424 40.2728C19.7715 39.9454 20.1861 39.8155 20.5922 39.9069C20.9982 39.9983 21.6712 40.7493 21.9392 41.2153C22.2071 41.6813 22.4506 41.779 22.4506 42.3939L22.4511 42.4462Z" fill="#4169B2"/>
<path d="M30.8126 42.4462C30.8126 41.6883 30.631 40.9555 30.3007 40.3811C29.9705 39.8068 29.5136 39.4289 29.013 39.3163C28.5125 39.2036 28.0015 39.3637 27.5731 39.7673C27.1447 40.171 26.8272 40.7914 26.6785 41.5159C26.7992 40.9281 27.438 40.6003 27.7855 40.2728C28.1331 39.9454 28.5476 39.8155 28.9537 39.9069C29.3598 39.9983 30.0328 40.7493 30.3007 41.2153C30.5687 41.6813 30.8121 41.779 30.8121 42.3939L30.8126 42.4462Z" fill="#4169B2"/>
<path d="M22.6411 44.5564C22.6411 45.4812 22.3779 46.3074 21.9654 46.8957C21.5524 47.4846 21.0063 47.8163 20.4319 47.8163C19.8575 47.8163 19.3114 47.4846 18.8984 46.8957C18.4859 46.3074 18.2226 45.4812 18.2226 44.5564C18.2226 43.6316 18.4859 42.8054 18.8984 42.2171C19.3114 41.6281 19.8575 41.2965 20.4319 41.2965C21.0063 41.2965 21.5524 41.6281 21.9654 42.2171C22.3779 42.8054 22.6411 43.6316 22.6411 44.5564Z" fill="white" stroke="#4169B2" stroke-width="0.51361"/>
<path d="M21.583 45.4358C21.583 46.6226 20.8512 47.4648 20.0784 47.4648C19.3056 47.4648 18.5737 46.6226 18.5737 45.4358C18.5737 44.2489 19.3056 43.4067 20.0784 43.4067C20.8512 43.4067 21.583 44.2489 21.583 45.4358Z" fill="#4169B2" stroke="#4169B2" stroke-width="0.51361"/>
<path d="M30.3911 44.5566C30.3911 45.4814 30.1279 46.3077 29.7154 46.8959C29.3024 47.4849 28.7563 47.8166 28.1819 47.8166C27.6075 47.8166 27.0614 47.4849 26.6484 46.8959C26.2359 46.3077 25.9726 45.4814 25.9726 44.5566C25.9726 43.6318 26.2359 42.8056 26.6484 42.2174C27.0614 41.6284 27.6075 41.2967 28.1819 41.2967C28.7563 41.2967 29.3024 41.6284 29.7154 42.2174C30.1279 42.8056 30.3911 43.6318 30.3911 44.5566Z" fill="white" stroke="#4169B2" stroke-width="0.51361"/>
<path d="M29.3347 45.4358C29.3347 46.6226 28.6029 47.4648 27.8301 47.4648C27.0573 47.4648 26.3254 46.6226 26.3254 45.4358C26.3254 44.2489 27.0573 43.4067 27.8301 43.4067C28.6029 43.4067 29.3347 44.2489 29.3347 45.4358Z" fill="#4169B2" stroke="#4169B2" stroke-width="0.51361"/>
<path d="M20.1746 46.1387C20.1746 46.5384 19.924 46.7611 19.7268 46.7611C19.5296 46.7611 19.279 46.5384 19.279 46.1387C19.279 45.739 19.5296 45.5163 19.7268 45.5163C19.924 45.5163 20.1746 45.739 20.1746 46.1387Z" fill="white" stroke="white" stroke-width="0.51361"/>
<path d="M27.9248 46.1387C27.9248 46.5384 27.6742 46.7611 27.477 46.7611C27.2799 46.7611 27.0293 46.5384 27.0293 46.1387C27.0293 45.739 27.2799 45.5163 27.477 45.5163C27.6742 45.5163 27.9248 45.739 27.9248 46.1387Z" fill="white" stroke="white" stroke-width="0.51361"/>
<path d="M20.7232 52.4691C20.3122 51.7071 20.0187 50.1129 22.1324 49.8315" stroke="#F09A26" stroke-width="1.02722"/>
<path d="M21.6646 51.2382C22.8976 52.9379 26.1035 55.3176 29.0627 51.2382C27.8884 54.1101 24.7647 58.1309 21.6646 51.2382Z" fill="#F09A26"/>
<rect x="111.678" y="30.1378" width="1.76147" height="1.75836" fill="white"/>
<rect x="114.847" y="31.8961" width="3.52294" height="1.75836" fill="white"/>
<rect x="111.678" y="33.6544" width="1.76147" height="1.75836" fill="white"/>
<path d="M119.076 29.4342C120.309 30.372 122.035 32.9861 119.076 35.9401" stroke="white" stroke-width="1.54083"/>
<path d="M113.585 12.8516V14.4766H105.39L105.304 13.2266L110.125 5.625H111.773L109.992 8.64844L107.406 12.8516H113.585ZM112.234 5.625V17H110.164V5.625H112.234ZM115.023 15.9922C115.023 15.6797 115.13 15.4167 115.343 15.2031C115.557 14.9896 115.846 14.8828 116.21 14.8828C116.575 14.8828 116.864 14.9896 117.078 15.2031C117.291 15.4167 117.398 15.6797 117.398 15.9922C117.398 16.2995 117.291 16.5599 117.078 16.7734C116.864 16.9818 116.575 17.0859 116.21 17.0859C115.846 17.0859 115.557 16.9818 115.343 16.7734C115.13 16.5599 115.023 16.2995 115.023 15.9922ZM127.273 12.8516V14.4766H119.078L118.992 13.2266L123.812 5.625H125.46L123.679 8.64844L121.093 12.8516H127.273ZM125.921 5.625V17H123.851V5.625H125.921ZM133.515 5.625L129.218 17.9766H127.648L131.945 5.625H133.515ZM136.656 11.7656L135.007 11.3672L135.64 5.625H141.898V7.33594H137.351L137.054 9.99219C137.216 9.89323 137.45 9.79427 137.757 9.69531C138.07 9.59115 138.421 9.53906 138.812 9.53906C139.354 9.53906 139.838 9.6276 140.265 9.80469C140.692 9.97656 141.054 10.2266 141.351 10.5547C141.653 10.8828 141.88 11.2839 142.031 11.7578C142.187 12.2266 142.265 12.7578 142.265 13.3516C142.265 13.8724 142.187 14.362 142.031 14.8203C141.88 15.2734 141.648 15.6771 141.335 16.0312C141.023 16.3802 140.63 16.6562 140.156 16.8594C139.682 17.0573 139.125 17.1562 138.484 17.1562C138 17.1562 137.533 17.0859 137.085 16.9453C136.643 16.7995 136.244 16.5885 135.89 16.3125C135.536 16.0312 135.252 15.6875 135.039 15.2812C134.83 14.875 134.716 14.4089 134.695 13.8828H136.734C136.77 14.2318 136.864 14.5286 137.015 14.7734C137.166 15.0182 137.364 15.2057 137.609 15.3359C137.859 15.4661 138.148 15.5312 138.476 15.5312C138.773 15.5312 139.028 15.4766 139.242 15.3672C139.46 15.2526 139.64 15.0938 139.781 14.8906C139.921 14.6875 140.026 14.4479 140.093 14.1719C140.161 13.8958 140.195 13.5938 140.195 13.2656C140.195 12.9479 140.156 12.6589 140.078 12.3984C140 12.1328 139.88 11.9036 139.718 11.7109C139.557 11.5182 139.354 11.3698 139.109 11.2656C138.869 11.1615 138.588 11.1094 138.265 11.1094C137.833 11.1094 137.5 11.1745 137.265 11.3047C137.036 11.4349 136.833 11.5885 136.656 11.7656Z" fill="#606162"/>
<path d="M49.6331 3.59487C49.4498 3.11612 48.7725 3.11612 48.5893 3.59487L47.1441 7.37047C47.0651 7.57709 46.8715 7.7176 46.6506 7.72882L42.6087 7.93396C42.0962 7.95997 41.8868 8.6052 42.2864 8.9272L45.434 11.4635C45.6066 11.6025 45.6807 11.8304 45.6229 12.0443L44.5695 15.9442C44.4358 16.4393 44.9838 16.838 45.4137 16.5583L48.8065 14.3514C48.9917 14.2309 49.2306 14.2309 49.4159 14.3514L52.8086 16.5583C53.2385 16.838 53.7865 16.4393 53.6528 15.9442L52.5994 12.0443C52.5417 11.8304 52.6158 11.6025 52.7883 11.4635L55.9359 8.9272C56.3355 8.6052 56.1262 7.95997 55.6136 7.93396L51.5718 7.72882C51.3508 7.7176 51.1573 7.57709 51.0782 7.37047L49.6331 3.59487Z" fill="#FCD209"/>
<path d="M67.5012 3.59487C67.318 3.11612 66.6407 3.11612 66.4574 3.59487L65.0123 7.37047C64.9332 7.57709 64.7397 7.7176 64.5187 7.72882L60.4769 7.93396C59.9643 7.95997 59.755 8.6052 60.1546 8.9272L63.3022 11.4635C63.4747 11.6025 63.5488 11.8304 63.491 12.0443L62.4377 15.9442C62.304 16.4393 62.852 16.838 63.2819 16.5583L66.6746 14.3514C66.8599 14.2309 67.0988 14.2309 67.284 14.3514L70.6768 16.5583C71.1067 16.838 71.6547 16.4393 71.521 15.9442L70.4676 12.0443C70.4098 11.8304 70.4839 11.6025 70.6565 11.4635L73.8041 8.9272C74.2037 8.6052 73.9943 7.95997 73.4818 7.93396L69.4399 7.72882C69.219 7.7176 69.0254 7.57709 68.9463 7.37047L67.5012 3.59487Z" fill="#FCD209"/>
<path d="M31.7654 3.59487C31.5821 3.11612 30.9048 3.11612 30.7216 3.59487L29.2765 7.37047C29.1974 7.57709 29.0038 7.7176 28.7829 7.72882L24.741 7.93396C24.2285 7.95997 24.0191 8.6052 24.4187 8.9272L27.5663 11.4635C27.7389 11.6025 27.813 11.8304 27.7552 12.0443L26.7019 15.9442C26.5681 16.4393 27.1162 16.838 27.5461 16.5583L30.9388 14.3514C31.124 14.2309 31.3629 14.2309 31.5482 14.3514L34.9409 16.5583C35.3708 16.838 35.9188 16.4393 35.7851 15.9442L34.7318 12.0443C34.674 11.8304 34.7481 11.6025 34.9206 11.4635L38.0682 8.9272C38.4679 8.6052 38.2585 7.95997 37.7459 7.93396L33.7041 7.72882C33.4831 7.7176 33.2896 7.57709 33.2105 7.37047L31.7654 3.59487Z" fill="#FCD209"/>
<path d="M13.8972 3.59487C13.714 3.11612 13.0367 3.11612 12.8534 3.59487L11.4083 7.37047C11.3292 7.57709 11.1357 7.7176 10.9147 7.72882L6.87287 7.93396C6.36032 7.95997 6.15095 8.6052 6.55057 8.9272L9.69817 11.4635C9.87072 11.6025 9.94482 11.8304 9.88703 12.0443L8.83369 15.9442C8.69996 16.4393 9.24799 16.838 9.67789 16.5583L13.0706 14.3514C13.2559 14.2309 13.4948 14.2309 13.68 14.3514L17.0727 16.5583C17.5026 16.838 18.0507 16.4393 17.9169 15.9442L16.8636 12.0443C16.8058 11.8304 16.8799 11.6025 17.0525 11.4635L20.2001 8.9272C20.5997 8.6052 20.3903 7.95997 19.8778 7.93396L15.8359 7.72882C15.615 7.7176 15.4214 7.57709 15.3423 7.37047L13.8972 3.59487Z" fill="#FCD209"/>
<path d="M84.8979 6.42105V12.5851L87.3916 14.1064L86.7385 11.2614L88.9354 9.3648L86.0458 9.10797L84.8979 6.42105ZM84.8979 14.4423L81.6124 16.418C81.4673 16.5101 81.3156 16.5497 81.1572 16.5365C80.9989 16.5233 80.8604 16.4706 80.7416 16.3784C80.6229 16.2862 80.5305 16.1711 80.4645 16.0331C80.3985 15.8945 80.3854 15.7396 80.4249 15.5684L81.2958 11.8344L78.3864 9.32529C78.2544 9.20675 78.1721 9.07161 78.1394 8.91988C78.1061 8.76868 78.1159 8.62064 78.1687 8.47575C78.2215 8.33087 78.3006 8.21233 78.4062 8.12013C78.5117 8.02793 78.6569 7.96866 78.8416 7.94232L82.6812 7.60646L84.1656 4.08976C84.2315 3.93171 84.3339 3.81317 84.4727 3.73414C84.611 3.65511 84.7527 3.6156 84.8979 3.6156C85.043 3.6156 85.185 3.65511 85.3238 3.73414C85.462 3.81317 85.5642 3.93171 85.6301 4.08976L87.1145 7.60646L90.9541 7.94232C91.1388 7.96866 91.284 8.02793 91.3895 8.12013C91.4951 8.21233 91.5742 8.33087 91.627 8.47575C91.6798 8.62064 91.6898 8.76868 91.6571 8.91988C91.6239 9.07161 91.5413 9.20675 91.4093 9.32529L88.4999 11.8344L89.3708 15.5684C89.4104 15.7396 89.3972 15.8945 89.3312 16.0331C89.2652 16.1711 89.1729 16.2862 89.0541 16.3784C88.9354 16.4706 88.7968 16.5233 88.6385 16.5365C88.4801 16.5497 88.3284 16.5101 88.1833 16.418L84.8979 14.4423Z" fill="#FCD209"/>
</svg>
