<svg width="187" height="44" viewBox="0 0 187 44" fill="none" xmlns="http://www.w3.org/2000/svg">
<path d="M133.555 7.06597C127.155 16.6491 139.777 19.8908 147.11 20.4084L146.443 23.7359L152.888 19.9648C161.11 16.6373 166.518 10.0237 167.777 7.06597C159.036 3.07302 139.955 -2.51711 133.555 7.06597Z" fill="#8ABD44"/>
<path d="M170.444 23.6678C162.089 22.9579 158.963 19.2312 158.444 17.4565L161.333 14.3509L180 11.0234C178.667 8.7312 177.6 5.52205 184 11.0234C192 17.9002 180 22.8485 177.556 23.6678C175.702 24.2891 170.815 25.3626 168.667 26.6196L170.444 23.6678Z" fill="#F19725"/>
<path d="M172.445 2.66191C165.512 -0.177521 161.26 3.84501 160.001 6.2112C156.667 12.4225 166.667 15.7499 170.889 16.6372C175.112 17.5245 179.334 13.5316 180.667 11.5351C182.001 9.53862 181.112 6.2112 172.445 2.66191Z" fill="white"/>
<path fill-rule="evenodd" clip-rule="evenodd" d="M161.959 0.496392C157.546 1.94228 154.651 4.72626 154.677 7.49869C154.694 9.33634 156.263 12.0937 158.273 13.82L160.223 15.4935L158.889 16.5671C158.156 17.1572 156.856 17.8657 156.001 18.1412C155.145 18.4163 152.745 19.6475 150.667 20.8764C146.313 23.4523 146.46 23.3512 146.709 23.6005C146.814 23.7047 148.398 22.8764 150.228 21.7597C152.058 20.6426 154.528 19.3232 155.716 18.828C157.703 17.9997 157.909 17.9864 158.288 18.6621C158.922 19.7925 162.175 21.8502 164.889 22.8378C167.831 23.9079 170.357 24.4292 170.028 23.8982C169.897 23.6861 168.897 23.3791 167.807 23.2158C165.303 22.8409 161.006 20.7158 159.428 19.0716L158.219 17.812L159.564 16.8196L160.909 15.8271L163.677 16.7827C165.199 17.308 166.702 17.8129 167.016 17.9043C167.466 18.0352 167.442 18.3502 166.905 19.387C166.53 20.1115 166.223 20.8001 166.223 20.9168C166.223 21.0339 167.873 20.5166 169.889 19.7677C171.906 19.0184 174.595 18.2158 175.865 17.9842C178.905 17.4296 182.581 15.1736 183.652 13.206C185.943 8.99605 182.37 3.9361 175.158 1.17697C172.017 -0.0249102 164.701 -0.402022 161.959 0.496392ZM166.667 4.37532C166.667 4.64285 166.353 5.94056 165.969 7.25912C165.436 9.09055 165.069 9.65666 164.413 9.65666C163.655 9.65666 163.556 9.32569 163.556 6.77286V3.88907H165.112C165.967 3.88907 166.667 4.10779 166.667 4.37532ZM171.556 4.91747C171.556 5.23957 171.249 6.53728 170.872 7.80127C170.35 9.55728 169.982 10.1003 169.317 10.1003C168.54 10.1003 168.445 9.78577 168.445 7.21653V4.33273H170.001C170.992 4.33273 171.556 4.5448 171.556 4.91747ZM177.158 6.40019C179.304 7.80393 178.306 10.2747 175.221 11.1939C173.8 11.6172 173.344 10.2658 174.609 9.38159C175.852 8.51202 175.805 7.95478 174.445 7.43836C173.224 6.97473 173.209 6.94767 173.617 5.88865C173.94 5.04658 175.413 5.25909 177.158 6.40019ZM164.631 10.3696C165.814 10.823 165.501 12.3186 164.223 12.3186C163.334 12.3186 163.112 12.0968 163.112 11.2095C163.112 10.0688 163.412 9.90289 164.631 10.3696ZM170.143 11.7685C170.258 12.5768 170.071 12.7623 169.143 12.7623C168.332 12.7623 168.001 12.5267 168.001 11.9491C168.001 10.2294 169.9 10.0693 170.143 11.7685ZM131.591 12.1336C131.612 12.6505 131.718 12.7556 131.86 12.402C131.988 12.0817 131.972 11.6988 131.824 11.5515C131.677 11.4042 131.572 11.666 131.591 12.1336ZM175.994 12.4295C175.981 13.446 175.21 14.2259 174.49 13.95C174.098 13.8 173.778 13.2721 173.778 12.776C173.778 12.1106 174.069 11.875 174.889 11.875C175.501 11.875 175.997 12.1247 175.994 12.4295ZM132.826 14.8515C134.253 17.5445 139.38 19.8613 144.445 20.1031L147.778 20.2624L144.514 19.8178C140.006 19.2038 136.654 17.8515 134.301 15.6971C133.003 14.509 132.488 14.2135 132.826 14.8515ZM185.814 17.0139C185.835 17.5308 185.94 17.6359 186.082 17.2823C186.21 16.962 186.194 16.5791 186.047 16.4318C185.899 16.2845 185.794 16.5463 185.814 17.0139ZM184.272 19.7287C182.781 21.4758 181.081 22.435 178.069 23.2287C175.351 23.9443 168.903 26.6334 168.895 27.0535C168.892 27.2274 170.441 26.7066 172.338 25.896C174.235 25.0854 176.985 24.0774 178.449 23.6551C181.72 22.7127 183.69 21.5415 184.93 19.8041C186.245 17.9607 185.822 17.9123 184.272 19.7287ZM26.0001 19.2624C25.1414 19.9421 25.153 19.9567 26.3428 19.6812C27.0196 19.5241 27.9699 19.6071 28.4539 19.8657C29.425 20.3848 29.6357 19.8964 28.8001 19.0623C28.0788 18.3422 27.0708 18.4141 26.0001 19.2624ZM34.5557 19.009C33.3801 19.6923 33.6126 20.3604 34.833 19.8059C35.5983 19.4576 36.1468 19.4642 36.833 19.8307C37.9517 20.4288 38.0477 20.1936 37.0797 19.2269C36.2761 18.4252 35.653 18.3711 34.5557 19.009ZM95.2803 21.1586C92.8572 21.5548 91.1736 22.7092 90.431 24.4838C89.711 26.2043 89.9852 27.5611 91.4434 29.4896C92.9479 31.4786 92.6416 32.5052 90.5452 32.5052C89.6341 32.5052 88.8887 32.5194 88.8887 32.5372C88.8892 32.5545 89.2083 33.5039 89.5985 34.6468C90.4234 37.0643 91.5403 37.5745 94.239 36.7675C97.6492 35.7475 98.7701 32.4409 96.6763 29.5762C94.1599 26.132 94.0661 24.4874 96.4066 24.8303C97.5994 25.0051 97.711 24.8955 97.9666 23.3001C98.2359 21.6187 98.0323 20.6927 97.4186 20.8036C97.2497 20.8343 96.2874 20.994 95.2803 21.1586ZM5.82402 21.6102C4.99379 21.7464 4.14668 22.1568 3.94179 22.5228C3.59512 23.1417 0 35.4524 0 36.0199C0 36.161 1.08 36.2763 2.40001 36.2763H4.79957L5.58624 32.838L6.37291 29.3996L6.99025 31.507C7.54447 33.3996 7.73958 33.6144 8.90581 33.6144C9.9787 33.6144 10.3796 33.2869 11.2134 31.7288L12.2223 29.8432L12.3503 33.4307L12.4783 37.0177L14.4654 36.7169C15.5587 36.5514 16.5529 36.3158 16.6752 36.1938C16.9969 35.8726 16.0152 22.7966 15.6449 22.4727C15.4734 22.3227 14.6774 21.9816 13.8752 21.7145L12.4169 21.2287L11.3196 23.7056C10.716 25.0677 10.2223 26.3973 10.2223 26.6595C10.2223 27.6387 9.42626 26.2443 8.68714 23.9701C8.27203 22.6919 7.79736 21.5823 7.63292 21.5046C7.46803 21.427 6.65424 21.4745 5.82402 21.6102ZM47.8468 21.5197L45.6935 21.6874L46.0126 26.8747C46.3775 32.8118 47.1135 35.1379 48.9219 36.0714C50.6957 36.9871 53.7251 36.8841 55.4229 35.8504C57.47 34.6046 58.1895 32.8539 58.6669 27.9577C59.3278 21.1741 59.4531 21.6355 56.9531 21.6355H54.7944L54.5504 26.183C54.2517 31.7443 54.0371 32.3743 52.4988 32.1964L51.3335 32.0615L51.2086 26.6267C51.1175 22.6613 50.9375 21.2136 50.542 21.2717C50.2442 21.3156 49.0313 21.4274 47.8468 21.5197ZM117.602 21.5206L115.426 21.6896L115.731 27.0974C116.172 34.9218 117.292 36.7009 121.778 36.712C125.796 36.7218 127.707 34.4147 128.201 28.9559C128.356 27.2478 128.593 24.9017 128.728 23.7429L128.973 21.6355H126.779H124.584L124.181 26.5828C123.762 31.7253 123.275 32.7816 121.616 32.1463C120.999 31.9094 120.889 31.0624 120.889 26.5295C120.889 22.5126 120.752 21.2118 120.334 21.2717C120.028 21.3156 118.799 21.4279 117.602 21.5206ZM25.2148 22.4119C23.6361 24.1604 23.7107 27.1143 25.3761 28.7767L26.2845 29.6835L27.3645 28.5207C28.5539 27.2394 28.6557 26.6844 28.0112 24.9918C27.5436 23.7651 25.6254 23.3729 25.1561 24.4084C25.0179 24.7136 24.9512 24.585 25.0081 24.1231C25.1512 22.9594 26.3094 22.3369 27.689 22.683C29.097 23.0353 29.973 25.502 29.3094 27.2443C29.0797 27.8477 29.069 28.2319 29.2854 28.0983C30.0188 27.6458 30.2645 25.5473 29.7619 24.0277C28.9908 21.6945 26.6223 20.8529 25.2148 22.4119ZM34.3241 21.9323C33.4637 22.2779 32.4446 24.5295 32.4446 26.0841C32.4446 27.55 34.5023 30.097 35.6326 30.03C36.0437 30.0056 36.0623 29.9302 35.6948 29.7807C35.3357 29.6347 35.4419 29.2913 36.0281 28.7066C37.8548 26.8827 36.2468 22.9323 34.1975 24.2101C33.161 24.856 33.0512 24.199 34.0317 23.2198C35.5357 21.7189 37.5668 22.9292 38.2295 25.7212C38.5655 27.1374 38.577 27.144 38.6215 25.939C38.7277 23.0401 36.5717 21.0299 34.3241 21.9323ZM74.6669 27.1192C74.6669 30.1356 74.7954 33.5394 74.9527 34.6831L75.238 36.7635L77.286 36.6308L79.3336 36.4982L79.4665 34.216C79.5905 32.0789 79.6803 31.9222 80.8798 31.7465L82.1607 31.5589L82.0803 34.0283L82.0003 36.4982L84.3336 36.6321L86.667 36.7666V31.7031C86.667 28.9182 86.791 25.7354 86.943 24.6302L87.219 22.6209L85.1834 22.4589L83.1478 22.2975L82.8563 24.6289C82.5874 26.7758 82.4541 26.9892 81.1714 27.3224L79.7781 27.6844L79.6474 24.66L79.5167 21.6355H77.0918H74.6669V27.1192ZM100.597 27.2922C100.755 30.4036 100.887 33.7971 100.887 34.8344L100.889 36.72H103.111H105.334V34.33C105.334 31.9954 105.366 31.9355 106.715 31.7381L108.096 31.5358L107.802 33.7537C107.457 36.3447 107.783 36.7031 110.487 36.7133L112.308 36.72L112.599 31.3264C113.099 22.0477 113.209 22.6377 110.935 22.4567L108.981 22.301L108.774 24.4559C108.556 26.7128 107.999 27.3849 106.334 27.3965C105.399 27.4027 105.334 27.2163 105.334 24.5193V21.6355H102.821H100.307L100.597 27.2922ZM61.2638 24.7811C61.4073 27.3184 61.4758 27.4666 62.3749 27.1862C62.9024 27.022 63.7549 26.7864 64.2696 26.6622L65.2056 26.4368L64.3353 31.6068C63.8567 34.4507 63.5731 36.885 63.7051 37.0172C63.8376 37.149 65.158 37.1166 66.6398 36.9449C69.7771 36.5816 69.6753 36.9134 68.7211 30.176C68.4016 27.9186 68.2162 26.0721 68.31 26.0721C68.4034 26.0721 69.2505 26.4643 70.1922 26.9439L71.9047 27.8162L72.1687 26.833C72.3136 26.2926 72.4354 25.0016 72.4385 23.9647L72.4447 22.0792L66.778 22.0783L61.1113 22.0774L61.2638 24.7811ZM130.947 24.6302C131.105 26.0335 131.301 27.258 131.381 27.3521C131.462 27.4457 132.14 27.2691 132.889 26.9594C133.638 26.6498 134.372 26.5176 134.521 26.6657C134.669 26.8139 134.435 29.1423 134 31.8397C133.566 34.5372 133.317 36.8509 133.448 36.9813C133.578 37.1117 134.906 37.0802 136.398 36.9117C139.523 36.5589 139.36 37.0443 138.466 30.7381C138.12 28.302 137.904 26.2416 137.987 26.1595C138.069 26.0774 138.93 26.4142 139.9 26.908L141.663 27.806L141.943 25.7682C142.491 21.7788 142.939 22.0792 136.441 22.0792H130.66L130.947 24.6302ZM26.6668 27.1813C26.6668 27.5473 26.3788 27.8468 26.0263 27.8468C25.2836 27.8468 24.7828 27.2137 25.1974 26.7993C25.7285 26.2691 26.6668 26.5131 26.6668 27.1813ZM34.913 26.998C35.3708 27.7381 34.341 28.5864 33.7277 27.9741C33.2148 27.4621 33.5357 26.5158 34.2223 26.5158C34.4379 26.5158 34.7486 26.7327 34.913 26.998ZM37.1584 28.6667L36.3166 29.8432L37.3557 28.8574C37.9277 28.3153 38.3064 27.7855 38.1975 27.6808C38.089 27.5757 37.6215 28.0194 37.1584 28.6667ZM148.049 28.9098C145.165 30.5052 145.041 35.3943 147.853 36.673C149.507 37.4254 150.989 36.8695 151.202 35.4161C151.351 34.405 151.24 34.2235 150.578 34.3961C149.573 34.6587 148.445 33.7648 148.445 32.7044C148.445 31.5358 149.724 30.4315 150.714 30.7452C151.283 30.9253 151.556 30.798 151.556 30.353C151.556 28.3113 150.165 27.739 148.049 28.9098ZM153.689 29.6418C152.449 30.8801 152.354 31.1844 152.555 33.2736C152.834 36.1663 154.089 37.3717 156.435 36.9968C158.609 36.6499 159.556 35.3327 159.556 32.6578C159.556 28.6085 156.367 26.9692 153.689 29.6418ZM163.231 28.5815C162.767 28.7691 162.28 30.1374 160.609 35.9436C160.431 36.5612 160.66 36.72 161.728 36.72C162.912 36.72 163.106 36.5354 163.364 35.1623C163.69 33.4298 164.445 32.6214 164.445 34.0057C164.445 35.3575 165.38 35.6503 166.255 34.5722C167.349 33.2235 167.556 33.3615 167.556 35.4365C167.556 36.9156 167.689 37.208 168.259 36.9893C168.646 36.8411 169.175 36.72 169.436 36.72C169.757 36.72 169.814 35.4835 169.613 32.8659C169.449 30.7461 169.27 28.9741 169.214 28.928C169.157 28.8818 168.702 28.719 168.201 28.5659C167.453 28.337 167.182 28.5832 166.676 29.9528L166.061 31.6179L165.415 29.9542C164.792 28.3503 164.405 28.1072 163.231 28.5815ZM157.186 32.4706C157.038 32.8557 156.505 33.1707 156.001 33.1707C154.729 33.1707 154.318 31.861 155.353 31.1059C156.057 30.5917 156.279 30.5961 156.819 31.1356C157.169 31.4848 157.334 32.0859 157.186 32.4706ZM142.29 34.8943C141.39 35.4635 141.868 36.9219 143.007 37.0838C144.201 37.2537 144.788 36.1139 143.996 35.1614C143.367 34.4054 143.123 34.3673 142.29 34.8943Z" fill="#3D6CB4"/>
<ellipse cx="31.109" cy="27.9505" rx="13.3334" ry="15.5281" fill="#8BBF46"/>
<ellipse cx="31.109" cy="27.9505" rx="9.33337" ry="13.3098" fill="white"/>
<path d="M28.3239 22.6265C28.3239 21.6703 28.0948 20.7459 27.6782 20.0213C27.2615 19.2967 26.6851 18.82 26.0536 18.6779C25.4221 18.5358 24.7775 18.7377 24.2371 19.2469C23.6966 19.7562 23.2961 20.5389 23.1084 21.4528C23.2607 20.7114 24.0666 20.2978 24.5051 19.8847C24.9435 19.4715 25.4665 19.3077 25.9788 19.423C26.4911 19.5383 27.3401 20.4858 27.6782 21.0737C28.0162 21.6616 28.3233 21.7848 28.3233 22.5605L28.3239 22.6265Z" fill="#4169B2"/>
<path d="M38.8728 22.6265C38.8728 21.6703 38.6436 20.7459 38.227 20.0213C37.8104 19.2967 37.2339 18.82 36.6024 18.6779C35.9709 18.5358 35.3264 18.7377 34.7859 19.2469C34.2454 19.7562 33.8449 20.5389 33.6572 21.4528C33.8095 20.7114 34.6154 20.2978 35.0539 19.8847C35.4924 19.4715 36.0153 19.3077 36.5276 19.423C37.04 19.5383 37.889 20.4858 38.227 21.0737C38.565 21.6616 38.8722 21.7848 38.8722 22.5605L38.8728 22.6265Z" fill="#4169B2"/>
<path d="M28.6307 25.2887C28.6307 26.4675 28.2953 27.5237 27.766 28.2784C27.2363 29.0338 26.5289 29.4685 25.7764 29.4685C25.0239 29.4685 24.3165 29.0338 23.7868 28.2784C23.2576 27.5237 22.9221 26.4675 22.9221 25.2887C22.9221 24.1099 23.2576 23.0536 23.7868 22.2989C24.3165 21.5435 25.0239 21.1089 25.7764 21.1089C26.5289 21.1089 27.2363 21.5435 27.766 22.2989C28.2953 23.0536 28.6307 24.1099 28.6307 25.2887Z" fill="white" stroke="#4169B2" stroke-width="0.51361"/>
<path d="M27.2961 26.3982C27.2961 27.9153 26.3579 29.0252 25.3306 29.0252C24.3034 29.0252 23.3652 27.9153 23.3652 26.3982C23.3652 24.8811 24.3034 23.7712 25.3306 23.7712C26.3579 23.7712 27.2961 24.8811 27.2961 26.3982Z" fill="#4169B2" stroke="#4169B2" stroke-width="0.51361"/>
<path d="M38.4083 25.2889C38.4083 26.4677 38.0728 27.5239 37.5436 28.2786C37.0139 29.0341 36.3065 29.4687 35.554 29.4687C34.8015 29.4687 34.0941 29.0341 33.5644 28.2786C33.0351 27.5239 32.6997 26.4677 32.6997 25.2889C32.6997 24.1101 33.0351 23.0539 33.5644 22.2992C34.0941 21.5437 34.8015 21.1091 35.554 21.1091C36.3065 21.1091 37.0139 21.5437 37.5436 22.2992C38.0728 23.0539 38.4083 24.1101 38.4083 25.2889Z" fill="white" stroke="#4169B2" stroke-width="0.51361"/>
<path d="M37.0754 26.3982C37.0754 27.9153 36.1372 29.0252 35.1099 29.0252C34.0827 29.0252 33.1445 27.9153 33.1445 26.3982C33.1445 24.8811 34.0827 23.7712 35.1099 23.7712C36.1372 23.7712 37.0754 24.8811 37.0754 26.3982Z" fill="#4169B2" stroke="#4169B2" stroke-width="0.51361"/>
<path d="M25.519 27.2849C25.519 27.8116 25.1859 28.1373 24.8869 28.1373C24.588 28.1373 24.2549 27.8116 24.2549 27.2849C24.2549 26.7582 24.588 26.4326 24.8869 26.4326C25.1859 26.4326 25.519 26.7582 25.519 27.2849Z" fill="white" stroke="white" stroke-width="0.51361"/>
<path d="M35.2966 27.2849C35.2966 27.8116 34.9635 28.1373 34.6645 28.1373C34.3656 28.1373 34.0324 27.8116 34.0324 27.2849C34.0324 26.7582 34.3656 26.4326 34.6645 26.4326C34.9635 26.4326 35.2966 26.7582 35.2966 27.2849Z" fill="white" stroke="white" stroke-width="0.51361"/>
<path d="M26.1441 35.2713C25.6256 34.31 25.2552 32.2988 27.9219 31.9438" stroke="#F09A26" stroke-width="1.02722"/>
<path d="M27.3315 33.7183C28.8871 35.8626 32.9316 38.8647 36.6649 33.7183C35.1834 37.3415 31.2427 42.414 27.3315 33.7183Z" fill="#F09A26"/>
<rect x="140.89" y="7.09888" width="2.22223" height="2.21831" fill="white"/>
<rect x="144.888" y="9.31689" width="4.44446" height="2.21831" fill="white"/>
<rect x="140.89" y="11.5349" width="2.22223" height="2.21831" fill="white"/>
<path d="M150.223 6.21118C151.778 7.39428 153.956 10.6922 150.223 14.4189" stroke="white" stroke-width="1.54083"/>
</svg>
