<svg xmlns="http://www.w3.org/2000/svg" width="28" height="26" viewBox="0 0 28 26">
    <path fill="#FFF" fill-rule="nonzero" d="M27.962 9.825a.775.775 0 0 0-.627-.514L18.6 8.104 14.67.419A.781.781 0 0 0 13.973 0a.776.776 0 0 0-.696.425L9.4 8.132.664 9.395a.775.775 0 0 0-.626.514.732.732 0 0 0 .2.772l6.34 5.974-1.466 8.462a.736.736 0 0 0 .31.738.782.782 0 0 0 .816.056l7.799-4.019 7.821 3.974a.812.812 0 0 0 .357.084.77.77 0 0 0 .776-.755.574.574 0 0 0-.023-.173l-1.512-8.412 6.299-6.008a.725.725 0 0 0 .207-.777zm-7.874 5.986a.733.733 0 0 0-.218.67l1.316 7.34-6.793-3.45a.806.806 0 0 0-.724 0L6.9 23.86l1.27-7.35a.741.741 0 0 0-.224-.664l-5.494-5.187 7.58-1.095a.769.769 0 0 0 .58-.414l3.368-6.69 3.414 6.673a.788.788 0 0 0 .586.414l7.586 1.05-5.477 5.215z"/>
</svg>
