<svg width="90" height="20" viewBox="0 0 90 20" fill="none" xmlns="http://www.w3.org/2000/svg">
<path d="M44.6331 4.55252C44.4498 4.07376 43.7725 4.07376 43.5893 4.55252L42.1442 8.32811C42.0651 8.53473 41.8715 8.67525 41.6506 8.68646L37.6087 8.8916C37.0962 8.91761 36.8868 9.56284 37.2864 9.88484L40.434 12.4211C40.6066 12.5602 40.6807 12.788 40.6229 13.002L39.5695 16.9018C39.4358 17.3969 39.9838 17.7956 40.4137 17.516L43.8065 15.3091C43.9917 15.1886 44.2306 15.1886 44.4159 15.3091L47.8086 17.516C48.2385 17.7956 48.7865 17.3969 48.6528 16.9018L47.5995 13.002C47.5417 12.788 47.6158 12.5602 47.7883 12.4211L50.9359 9.88484C51.3355 9.56284 51.1262 8.91761 50.6136 8.8916L46.5718 8.68646C46.3508 8.67525 46.1573 8.53473 46.0782 8.32811L44.6331 4.55252Z" fill="#FCD209"/>
<path d="M62.5012 4.55252C62.318 4.07376 61.6407 4.07376 61.4574 4.55252L60.0123 8.32811C59.9332 8.53473 59.7397 8.67525 59.5187 8.68646L55.4769 8.8916C54.9643 8.91761 54.755 9.56284 55.1546 9.88484L58.3022 12.4211C58.4747 12.5602 58.5488 12.788 58.491 13.002L57.4377 16.9018C57.304 17.3969 57.852 17.7956 58.2819 17.516L61.6746 15.3091C61.8599 15.1886 62.0988 15.1886 62.284 15.3091L65.6768 17.516C66.1067 17.7956 66.6547 17.3969 66.521 16.9018L65.4676 13.002C65.4098 12.788 65.4839 12.5602 65.6565 12.4211L68.8041 9.88484C69.2037 9.56284 68.9943 8.91761 68.4818 8.8916L64.4399 8.68646C64.219 8.67525 64.0254 8.53473 63.9463 8.32811L62.5012 4.55252Z" fill="#FCD209"/>
<path d="M26.7653 4.55252C26.5821 4.07376 25.9048 4.07376 25.7215 4.55252L24.2764 8.32811C24.1973 8.53473 24.0038 8.67525 23.7828 8.68646L19.741 8.8916C19.2284 8.91761 19.019 9.56284 19.4187 9.88484L22.5663 12.4211C22.7388 12.5602 22.8129 12.788 22.7551 13.002L21.7018 16.9018C21.5681 17.3969 22.1161 17.7956 22.546 17.516L25.9387 15.3091C26.124 15.1886 26.3629 15.1886 26.5481 15.3091L29.9408 17.516C30.3707 17.7956 30.9188 17.3969 30.785 16.9018L29.7317 13.002C29.6739 12.788 29.748 12.5602 29.9206 12.4211L33.0682 9.88484C33.4678 9.56284 33.2584 8.91761 32.7459 8.8916L28.704 8.68646C28.483 8.67525 28.2895 8.53473 28.2104 8.32811L26.7653 4.55252Z" fill="#FCD209"/>
<path d="M8.89716 4.55252C8.71392 4.07376 8.0366 4.07376 7.85336 4.55252L6.40824 8.32811C6.32916 8.53473 6.13562 8.67525 5.91467 8.68646L1.87281 8.8916C1.36026 8.91761 1.15089 9.56284 1.55051 9.88484L4.69811 12.4211C4.87066 12.5602 4.94476 12.788 4.88697 13.002L3.83363 16.9018C3.6999 17.3969 4.24793 17.7956 4.67783 17.516L8.07055 15.3091C8.25582 15.1886 8.4947 15.1886 8.67997 15.3091L12.0727 17.516C12.5026 17.7956 13.0506 17.3969 12.9169 16.9018L11.8635 13.002C11.8058 12.788 11.8799 12.5602 12.0524 12.4211L15.2 9.88484C15.5996 9.56284 15.3903 8.91761 14.8777 8.8916L10.8358 8.68646C10.6149 8.67525 10.4214 8.53473 10.3423 8.32811L8.89716 4.55252Z" fill="#FCD209"/>
<path d="M79.8979 7.37845V13.5425L82.3917 15.0638L81.7386 12.2188L83.9354 10.3222L81.0459 10.0654L79.8979 7.37845ZM79.8979 15.3997L76.6125 17.3753C76.4674 17.4675 76.3156 17.5071 76.1573 17.4939C75.999 17.4807 75.8604 17.428 75.7417 17.3358C75.6229 17.2436 75.5306 17.1285 75.4646 16.9905C75.3986 16.8519 75.3854 16.697 75.425 16.5258L76.2959 12.7918L73.3865 10.2827C73.2545 10.1641 73.1722 10.029 73.1395 9.87728C73.1062 9.72608 73.116 9.57803 73.1688 9.43315C73.2215 9.28827 73.3007 9.16973 73.4063 9.07753C73.5118 8.98533 73.657 8.92606 73.8417 8.89972L77.6813 8.56385L79.1656 5.04716C79.2316 4.88911 79.334 4.77057 79.4728 4.69154C79.6111 4.61251 79.7528 4.573 79.8979 4.573C80.0431 4.573 80.185 4.61251 80.3239 4.69154C80.4621 4.77057 80.5643 4.88911 80.6302 5.04716L82.1146 8.56385L85.9542 8.89972C86.1389 8.92606 86.284 8.98533 86.3896 9.07753C86.4952 9.16973 86.5743 9.28827 86.6271 9.43315C86.6799 9.57803 86.6899 9.72608 86.6572 9.87728C86.6239 10.029 86.5413 10.1641 86.4094 10.2827L83.5 12.7918L84.3709 16.5258C84.4104 16.697 84.3972 16.8519 84.3313 16.9905C84.2653 17.1285 84.1729 17.2436 84.0542 17.3358C83.9354 17.428 83.7969 17.4807 83.6386 17.4939C83.4802 17.5071 83.3285 17.4675 83.1834 17.3753L79.8979 15.3997Z" fill="#FCD209"/>
</svg>
