<svg width="139" height="59" viewBox="0 0 139 59" fill="none" xmlns="http://www.w3.org/2000/svg">
<path d="M108.585 12.8516V14.4766H100.39L100.304 13.2266L105.125 5.625H106.773L104.992 8.64844L102.406 12.8516H108.585ZM107.234 5.625V17H105.164V5.625H107.234ZM110.023 15.9922C110.023 15.6797 110.13 15.4167 110.343 15.2031C110.557 14.9896 110.846 14.8828 111.21 14.8828C111.575 14.8828 111.864 14.9896 112.078 15.2031C112.291 15.4167 112.398 15.6797 112.398 15.9922C112.398 16.2995 112.291 16.5599 112.078 16.7734C111.864 16.9818 111.575 17.0859 111.21 17.0859C110.846 17.0859 110.557 16.9818 110.343 16.7734C110.13 16.5599 110.023 16.2995 110.023 15.9922ZM119.687 5.59375V17H117.617V8.00781L114.875 8.91406V7.24219L119.453 5.59375H119.687ZM128.515 5.625L124.218 17.9766H122.648L126.945 5.625H128.515ZM131.656 11.7656L130.007 11.3672L130.64 5.625H136.898V7.33594H132.351L132.054 9.99219C132.216 9.89323 132.45 9.79427 132.757 9.69531C133.07 9.59115 133.421 9.53906 133.812 9.53906C134.354 9.53906 134.838 9.6276 135.265 9.80469C135.692 9.97656 136.054 10.2266 136.351 10.5547C136.653 10.8828 136.88 11.2839 137.031 11.7578C137.187 12.2266 137.265 12.7578 137.265 13.3516C137.265 13.8724 137.187 14.362 137.031 14.8203C136.88 15.2734 136.648 15.6771 136.335 16.0312C136.023 16.3802 135.63 16.6562 135.156 16.8594C134.682 17.0573 134.125 17.1562 133.484 17.1562C133 17.1562 132.533 17.0859 132.085 16.9453C131.643 16.7995 131.244 16.5885 130.89 16.3125C130.536 16.0312 130.252 15.6875 130.039 15.2812C129.83 14.875 129.716 14.4089 129.695 13.8828H131.734C131.77 14.2318 131.864 14.5286 132.015 14.7734C132.166 15.0182 132.364 15.2057 132.609 15.3359C132.859 15.4661 133.148 15.5312 133.476 15.5312C133.773 15.5312 134.028 15.4766 134.242 15.3672C134.46 15.2526 134.64 15.0938 134.781 14.8906C134.921 14.6875 135.026 14.4479 135.093 14.1719C135.161 13.8958 135.195 13.5938 135.195 13.2656C135.195 12.9479 135.156 12.6589 135.078 12.3984C135 12.1328 134.88 11.9036 134.718 11.7109C134.557 11.5182 134.354 11.3698 134.109 11.2656C133.869 11.1615 133.588 11.1094 133.265 11.1094C132.833 11.1094 132.5 11.1745 132.265 11.3047C132.036 11.4349 131.833 11.5885 131.656 11.7656Z" fill="#606162"/>
<path d="M44.6331 3.59487C44.4498 3.11612 43.7725 3.11612 43.5893 3.59487L42.1441 7.37047C42.0651 7.57709 41.8715 7.7176 41.6506 7.72882L37.6087 7.93396C37.0962 7.95997 36.8868 8.6052 37.2864 8.9272L40.434 11.4635C40.6066 11.6025 40.6807 11.8304 40.6229 12.0443L39.5695 15.9442C39.4358 16.4393 39.9838 16.838 40.4137 16.5583L43.8065 14.3514C43.9917 14.2309 44.2306 14.2309 44.4159 14.3514L47.8086 16.5583C48.2385 16.838 48.7865 16.4393 48.6528 15.9442L47.5994 12.0443C47.5417 11.8304 47.6158 11.6025 47.7883 11.4635L50.9359 8.9272C51.3355 8.6052 51.1262 7.95997 50.6136 7.93396L46.5718 7.72882C46.3508 7.7176 46.1573 7.57709 46.0782 7.37047L44.6331 3.59487Z" fill="#FCD209"/>
<path d="M62.5012 3.59487C62.318 3.11612 61.6407 3.11612 61.4574 3.59487L60.0123 7.37047C59.9332 7.57709 59.7397 7.7176 59.5187 7.72882L55.4769 7.93396C54.9643 7.95997 54.755 8.6052 55.1546 8.9272L58.3022 11.4635C58.4747 11.6025 58.5488 11.8304 58.491 12.0443L57.4377 15.9442C57.304 16.4393 57.852 16.838 58.2819 16.5583L61.6746 14.3514C61.8599 14.2309 62.0988 14.2309 62.284 14.3514L65.6768 16.5583C66.1067 16.838 66.6547 16.4393 66.521 15.9442L65.4676 12.0443C65.4098 11.8304 65.4839 11.6025 65.6565 11.4635L68.8041 8.9272C69.2037 8.6052 68.9943 7.95997 68.4818 7.93396L64.4399 7.72882C64.219 7.7176 64.0254 7.57709 63.9463 7.37047L62.5012 3.59487Z" fill="#FCD209"/>
<path d="M26.7654 3.59487C26.5821 3.11612 25.9048 3.11612 25.7216 3.59487L24.2765 7.37047C24.1974 7.57709 24.0038 7.7176 23.7829 7.72882L19.741 7.93396C19.2285 7.95997 19.0191 8.6052 19.4187 8.9272L22.5663 11.4635C22.7389 11.6025 22.813 11.8304 22.7552 12.0443L21.7019 15.9442C21.5681 16.4393 22.1162 16.838 22.5461 16.5583L25.9388 14.3514C26.124 14.2309 26.3629 14.2309 26.5482 14.3514L29.9409 16.5583C30.3708 16.838 30.9188 16.4393 30.7851 15.9442L29.7318 12.0443C29.674 11.8304 29.7481 11.6025 29.9206 11.4635L33.0682 8.9272C33.4679 8.6052 33.2585 7.95997 32.7459 7.93396L28.7041 7.72882C28.4831 7.7176 28.2896 7.57709 28.2105 7.37047L26.7654 3.59487Z" fill="#FCD209"/>
<path d="M8.89722 3.59487C8.71398 3.11612 8.03666 3.11612 7.85342 3.59487L6.40831 7.37047C6.32922 7.57709 6.13568 7.7176 5.91473 7.72882L1.87287 7.93396C1.36032 7.95997 1.15095 8.6052 1.55057 8.9272L4.69817 11.4635C4.87072 11.6025 4.94482 11.8304 4.88703 12.0443L3.83369 15.9442C3.69996 16.4393 4.24799 16.838 4.67789 16.5583L8.07061 14.3514C8.25588 14.2309 8.49476 14.2309 8.68003 14.3514L12.0727 16.5583C12.5026 16.838 13.0507 16.4393 12.9169 15.9442L11.8636 12.0443C11.8058 11.8304 11.8799 11.6025 12.0525 11.4635L15.2001 8.9272C15.5997 8.6052 15.3903 7.95997 14.8778 7.93396L10.8359 7.72882C10.615 7.7176 10.4214 7.57709 10.3423 7.37047L8.89722 3.59487Z" fill="#FCD209"/>
<path d="M79.8979 6.42105V12.5851L82.3916 14.1064L81.7385 11.2614L83.9354 9.3648L81.0458 9.10797L79.8979 6.42105ZM79.8979 14.4423L76.6124 16.418C76.4673 16.5101 76.3156 16.5497 76.1572 16.5365C75.9989 16.5233 75.8604 16.4706 75.7416 16.3784C75.6229 16.2862 75.5305 16.1711 75.4645 16.0331C75.3985 15.8945 75.3854 15.7396 75.4249 15.5684L76.2958 11.8344L73.3864 9.32529C73.2544 9.20675 73.1721 9.07161 73.1394 8.91988C73.1061 8.76868 73.1159 8.62064 73.1687 8.47575C73.2215 8.33087 73.3006 8.21233 73.4062 8.12013C73.5117 8.02793 73.6569 7.96866 73.8416 7.94232L77.6812 7.60646L79.1656 4.08976C79.2315 3.93171 79.3339 3.81317 79.4727 3.73414C79.611 3.65511 79.7527 3.6156 79.8979 3.6156C80.043 3.6156 80.185 3.65511 80.3238 3.73414C80.462 3.81317 80.5642 3.93171 80.6301 4.08976L82.1145 7.60646L85.9541 7.94232C86.1388 7.96866 86.284 8.02793 86.3895 8.12013C86.4951 8.21233 86.5742 8.33087 86.627 8.47575C86.6798 8.62064 86.6898 8.76868 86.6571 8.91988C86.6239 9.07161 86.5413 9.20675 86.4093 9.32529L83.4999 11.8344L84.3708 15.5684C84.4104 15.7396 84.3972 15.8945 84.3312 16.0331C84.2652 16.1711 84.1729 16.2862 84.0541 16.3784C83.9354 16.4706 83.7968 16.5233 83.6385 16.5365C83.4801 16.5497 83.3284 16.5101 83.1833 16.418L79.8979 14.4423Z" fill="#FCD209"/>
<g clip-path="url(#clip0_759_5178)">
<path d="M41.7481 40.9238H53.5948V43.0777H48.9367V55.1855H46.3752V43.0777H41.7378V40.9238H41.7481ZM53.0887 44.8591H55.2783V46.8519H55.3196C55.3919 46.5701 55.5262 46.2984 55.7224 46.0367C55.9187 45.775 56.1562 45.5234 56.4351 45.312C56.714 45.0906 57.0238 44.9195 57.3646 44.7786C57.7055 44.6478 58.0567 44.5773 58.4078 44.5773C58.6764 44.5773 58.8726 44.5874 58.9759 44.5974C59.0792 44.6075 59.1824 44.6276 59.2961 44.6377V46.8318C59.1308 46.8016 58.9656 46.7815 58.79 46.7614C58.6144 46.7412 58.4491 46.7312 58.2839 46.7312C57.8914 46.7312 57.5196 46.8117 57.1684 46.9626C56.8172 47.1136 56.5177 47.3451 56.2595 47.637C56.0013 47.9389 55.7947 48.3013 55.6398 48.7441C55.4849 49.1869 55.4126 49.6902 55.4126 50.2639V55.1754H53.0784V44.8591H53.0887ZM70.0273 55.1855H67.7344V53.7463H67.693C67.4039 54.2696 66.9804 54.6823 66.4123 54.9943C65.8443 55.3063 65.2659 55.4673 64.6772 55.4673C63.2828 55.4673 62.2706 55.1352 61.6509 54.4608C61.0312 53.7865 60.7214 52.77 60.7214 51.4112V44.8591H63.0556V51.1898C63.0556 52.0956 63.2312 52.7398 63.5927 53.1122C63.9438 53.4846 64.4499 53.6758 65.0903 53.6758C65.5861 53.6758 65.9889 53.6054 66.3194 53.4544C66.6499 53.3034 66.9184 53.1122 67.1147 52.8606C67.3212 52.619 67.4658 52.3171 67.5588 51.9749C67.6517 51.6327 67.693 51.2603 67.693 50.8577V44.8692H70.0273V55.1855ZM74.0037 51.8742C74.076 52.5385 74.3342 53.0015 74.7783 53.2732C75.2328 53.5349 75.7698 53.6758 76.3999 53.6758C76.6168 53.6758 76.8647 53.6557 77.1435 53.6255C77.4224 53.5953 77.6909 53.5248 77.9285 53.4342C78.1764 53.3437 78.3726 53.2028 78.5379 53.0216C78.6928 52.8404 78.7651 52.6089 78.7548 52.3171C78.7444 52.0252 78.6308 51.7836 78.4242 51.6025C78.2177 51.4112 77.9595 51.2703 77.6393 51.1496C77.3191 51.0389 76.9576 50.9382 76.5445 50.8577C76.1313 50.7772 75.7182 50.6866 75.2947 50.596C74.8609 50.5054 74.4375 50.3846 74.0347 50.2538C73.6319 50.123 73.2704 49.9418 72.9502 49.7103C72.63 49.4889 72.3718 49.197 72.1859 48.8447C71.9897 48.4925 71.8967 48.0597 71.8967 47.5363C71.8967 46.9727 72.0413 46.5097 72.3202 46.1273C72.599 45.7448 72.9605 45.4429 73.384 45.2114C73.8178 44.9799 74.2929 44.8189 74.8196 44.7182C75.3464 44.6276 75.8525 44.5773 76.3276 44.5773C76.875 44.5773 77.4017 44.6377 77.8975 44.7484C78.3933 44.8591 78.8477 45.0403 79.2505 45.302C79.6533 45.5536 79.9838 45.8857 80.2524 46.2883C80.5209 46.6909 80.6862 47.1841 80.7585 47.7578H78.321C78.2073 47.2143 77.9595 46.8419 77.5567 46.6607C77.1539 46.4695 76.6891 46.3789 76.1727 46.3789C76.0074 46.3789 75.8112 46.389 75.5839 46.4192C75.3567 46.4493 75.1501 46.4997 74.9436 46.5701C74.7473 46.6406 74.5821 46.7513 74.4375 46.8922C74.3032 47.0331 74.2309 47.2143 74.2309 47.4458C74.2309 47.7276 74.3342 47.949 74.5304 48.1201C74.7267 48.2912 74.9849 48.4321 75.3051 48.5529C75.6252 48.6636 75.9867 48.7642 76.3999 48.8447C76.813 48.9253 77.2365 49.0158 77.6703 49.1064C78.0937 49.197 78.5069 49.3178 78.92 49.4486C79.3331 49.5795 79.6946 49.7606 80.0148 49.9921C80.335 50.2236 80.5932 50.5054 80.7894 50.8476C80.9857 51.1898 81.089 51.6226 81.089 52.1258C81.089 52.7398 80.9444 53.2531 80.6552 53.6859C80.366 54.1086 79.9942 54.4608 79.5397 54.7225C79.0853 54.9842 78.5688 55.1855 78.0111 55.3063C77.4534 55.4271 76.8956 55.4874 76.3482 55.4874C75.6769 55.4874 75.0572 55.417 74.4891 55.266C73.9211 55.1151 73.4253 54.8936 73.0122 54.6018C72.599 54.2998 72.2685 53.9274 72.031 53.4846C71.7934 53.0417 71.6695 52.5083 71.6488 51.8944H74.0037V51.8742ZM81.7087 44.8591H83.4748V41.7592H85.809V44.8591H87.916V46.5601H85.809V52.0755C85.809 52.3171 85.8194 52.5184 85.84 52.6995C85.8607 52.8706 85.9123 53.0216 85.9846 53.1424C86.0569 53.2632 86.1705 53.3537 86.3255 53.4141C86.4804 53.4745 86.6766 53.5047 86.9452 53.5047C87.1104 53.5047 87.2757 53.5047 87.4409 53.4946C87.6062 53.4846 87.7714 53.4644 87.9367 53.4242V55.1855C87.6785 55.2157 87.4203 55.2358 87.1827 55.266C86.9348 55.2962 86.687 55.3063 86.4287 55.3063C85.809 55.3063 85.3133 55.2459 84.9415 55.1352C84.5696 55.0245 84.2701 54.8534 84.0635 54.632C83.8467 54.4105 83.7124 54.1388 83.6298 53.8066C83.5575 53.4745 83.5058 53.0921 83.4955 52.6693V46.5802H81.7293V44.8591H81.7087ZM89.5686 44.8591H91.7789V46.2581H91.8202C92.1507 45.6542 92.6051 45.2315 93.1938 44.9698C93.7826 44.7082 94.4126 44.5773 95.1046 44.5773C95.9412 44.5773 96.6642 44.7182 97.2839 45.0101C97.9036 45.2919 98.42 45.6844 98.8332 46.1877C99.2463 46.6909 99.5458 47.2747 99.7524 47.9389C99.9589 48.6032 100.062 49.3178 100.062 50.0726C100.062 50.7671 99.9693 51.4414 99.7834 52.0856C99.5975 52.7398 99.3186 53.3135 98.9468 53.8167C98.5749 54.3199 98.0998 54.7125 97.5214 55.0144C96.9431 55.3163 96.2717 55.4673 95.4868 55.4673C95.1459 55.4673 94.8051 55.4371 94.4642 55.3767C94.1234 55.3163 93.7929 55.2157 93.483 55.0849C93.1732 54.954 92.8737 54.7829 92.6155 54.5716C92.3469 54.3602 92.13 54.1186 91.9441 53.8469H91.9028V59H89.5686V44.8591ZM97.728 50.0324C97.728 49.5694 97.666 49.1165 97.5421 48.6736C97.4182 48.2308 97.2323 47.8483 96.9844 47.5061C96.7365 47.1639 96.4266 46.8922 96.0651 46.6909C95.6933 46.4896 95.2698 46.3789 94.7947 46.3789C93.8135 46.3789 93.0699 46.711 92.5741 47.3753C92.0784 48.0396 91.8305 48.9253 91.8305 50.0324C91.8305 50.5557 91.8925 51.0389 92.0267 51.4817C92.161 51.9245 92.3469 52.307 92.6155 52.6291C92.8737 52.9511 93.1835 53.2028 93.545 53.3839C93.9065 53.5752 94.33 53.6657 94.8051 53.6657C95.3422 53.6657 95.7863 53.555 96.1581 53.3437C96.5299 53.1323 96.8294 52.8505 97.067 52.5184C97.3045 52.1762 97.4801 51.7937 97.5834 51.3609C97.6764 50.9281 97.728 50.4853 97.728 50.0324ZM101.849 40.9238H104.183V43.0777H101.849V40.9238ZM101.849 44.8591H104.183V55.1855H101.849V44.8591ZM106.27 40.9238H108.604V55.1855H106.27V40.9238ZM115.761 55.4673C114.914 55.4673 114.16 55.3264 113.499 55.0547C112.838 54.7829 112.281 54.4005 111.816 53.9274C111.361 53.4443 111.01 52.8706 110.773 52.2064C110.535 51.5421 110.411 50.8074 110.411 50.0123C110.411 49.2272 110.535 48.5025 110.773 47.8383C111.01 47.174 111.361 46.6003 111.816 46.1172C112.27 45.6341 112.838 45.2617 113.499 44.99C114.16 44.7182 114.914 44.5773 115.761 44.5773C116.608 44.5773 117.362 44.7182 118.023 44.99C118.684 45.2617 119.242 45.6442 119.707 46.1172C120.161 46.6003 120.512 47.174 120.75 47.8383C120.988 48.5025 121.111 49.2272 121.111 50.0123C121.111 50.8074 120.988 51.5421 120.75 52.2064C120.512 52.8706 120.161 53.4443 119.707 53.9274C119.252 54.4105 118.684 54.7829 118.023 55.0547C117.362 55.3264 116.608 55.4673 115.761 55.4673ZM115.761 53.6657C116.278 53.6657 116.732 53.555 117.114 53.3437C117.497 53.1323 117.806 52.8505 118.054 52.5083C118.302 52.1661 118.478 51.7736 118.602 51.3408C118.715 50.908 118.777 50.4652 118.777 50.0123C118.777 49.5694 118.715 49.1366 118.602 48.6938C118.488 48.2509 118.302 47.8685 118.054 47.5263C117.806 47.1841 117.497 46.9123 117.114 46.701C116.732 46.4896 116.278 46.3789 115.761 46.3789C115.245 46.3789 114.791 46.4896 114.408 46.701C114.026 46.9123 113.716 47.1941 113.468 47.5263C113.221 47.8685 113.045 48.2509 112.921 48.6938C112.807 49.1366 112.745 49.5694 112.745 50.0123C112.745 50.4652 112.807 50.908 112.921 51.3408C113.035 51.7736 113.221 52.1661 113.468 52.5083C113.716 52.8505 114.026 53.1323 114.408 53.3437C114.791 53.5651 115.245 53.6657 115.761 53.6657ZM121.793 44.8591H123.559V41.7592H125.894V44.8591H128.001V46.5601H125.894V52.0755C125.894 52.3171 125.904 52.5184 125.925 52.6995C125.945 52.8706 125.997 53.0216 126.069 53.1424C126.141 53.2632 126.255 53.3537 126.41 53.4141C126.565 53.4745 126.761 53.5047 127.03 53.5047C127.195 53.5047 127.36 53.5047 127.525 53.4946C127.691 53.4846 127.856 53.4644 128.021 53.4242V55.1855C127.763 55.2157 127.505 55.2358 127.267 55.266C127.019 55.2962 126.771 55.3063 126.513 55.3063C125.894 55.3063 125.398 55.2459 125.026 55.1352C124.654 55.0245 124.355 54.8534 124.148 54.632C123.931 54.4105 123.797 54.1388 123.714 53.8066C123.642 53.4745 123.59 53.0921 123.58 52.6693V46.5802H121.814V44.8591H121.793Z" fill="black"/>
<path d="M39.0209 40.9238H28.3207L25.0156 31L21.7002 40.9238L11 40.9137L19.6655 47.0532L16.3501 56.9669L25.0156 50.8375L33.6708 56.9669L30.3657 47.0532L39.0209 40.9238Z" fill="#00B67A"/>
<path d="M31.1099 49.2977L30.3662 47.0532L25.0161 50.8376L31.1099 49.2977Z" fill="#005128"/>
</g>
<defs>
<clipPath id="clip0_759_5178">
<rect width="117" height="28" fill="white" transform="translate(11 31)"/>
</clipPath>
</defs>
</svg>
