<svg width="20" height="20" viewBox="0 0 20 20" fill="none" xmlns="http://www.w3.org/2000/svg">
<g clip-path="url(#clip0_1635_14411)">
<mask id="path-1-inside-1_1635_14411" fill="white">
<path d="M9.85657 9.63406C11.1801 9.63406 12.3262 9.15936 13.2626 8.22278C14.1991 7.28635 14.6738 6.14057 14.6738 4.81688C14.6738 3.49364 14.1991 2.34771 13.2625 1.41097C12.3259 0.474699 11.18 0 9.85657 0C8.53287 0 7.38708 0.474699 6.45065 1.41113C5.51422 2.34756 5.03937 3.49349 5.03937 4.81688C5.03937 6.14057 5.51422 7.2865 6.45081 8.22293C7.38739 9.1592 8.53332 9.63406 9.85657 9.63406Z"/>
</mask>
<path d="M9.85657 9.63406C11.1801 9.63406 12.3262 9.15936 13.2626 8.22278C14.1991 7.28635 14.6738 6.14057 14.6738 4.81688C14.6738 3.49364 14.1991 2.34771 13.2625 1.41097C12.3259 0.474699 11.18 0 9.85657 0C8.53287 0 7.38708 0.474699 6.45065 1.41113C5.51422 2.34756 5.03937 3.49349 5.03937 4.81688C5.03937 6.14057 5.51422 7.2865 6.45081 8.22293C7.38739 9.1592 8.53332 9.63406 9.85657 9.63406Z" stroke="#022B50" stroke-width="2" mask="url(#path-1-inside-1_1635_14411)"/>
<mask id="path-2-inside-2_1635_14411" fill="white">
<path d="M18.2859 15.3823C18.2589 14.9926 18.2043 14.5675 18.1239 14.1185C18.0427 13.6663 17.9382 13.2387 17.813 12.8479C17.6838 12.444 17.508 12.0452 17.2907 11.663C17.0652 11.2662 16.8003 10.9208 16.5031 10.6365C16.1923 10.3391 15.8117 10.1 15.3716 9.9256C14.9331 9.75211 14.4471 9.66422 13.9272 9.66422C13.7231 9.66422 13.5256 9.74799 13.1443 9.99624C12.9096 10.1493 12.6351 10.3263 12.3287 10.5221C12.0667 10.689 11.7118 10.8454 11.2734 10.987C10.8457 11.1254 10.4115 11.1956 9.98285 11.1956C9.55423 11.1956 9.12012 11.1254 8.69196 10.987C8.25403 10.8455 7.89911 10.6891 7.63742 10.5222C7.33392 10.3283 7.05927 10.1513 6.82108 9.99609C6.44022 9.74783 6.24261 9.66406 6.03845 9.66406C5.51843 9.66406 5.03259 9.75211 4.59421 9.92575C4.15445 10.0999 3.77374 10.339 3.46262 10.6367C3.16553 10.9211 2.90048 11.2664 2.67526 11.663C2.45813 12.0452 2.28235 12.4439 2.15295 12.8481C2.02798 13.2389 1.92346 13.6663 1.84229 14.1185C1.76187 14.5668 1.70724 14.9921 1.68024 15.3827C1.65369 15.7654 1.64026 16.1626 1.64026 16.5638C1.64026 17.6078 1.97214 18.4529 2.62659 19.0763C3.27295 19.6913 4.1282 20.0034 5.16824 20.0034H14.7984C15.8384 20.0034 16.6934 19.6915 17.3399 19.0763C17.9945 18.4534 18.3264 17.6081 18.3264 16.5636C18.3262 16.1606 18.3126 15.7631 18.2859 15.3823Z"/>
</mask>
<path d="M18.2859 15.3823C18.2589 14.9926 18.2043 14.5675 18.1239 14.1185C18.0427 13.6663 17.9382 13.2387 17.813 12.8479C17.6838 12.444 17.508 12.0452 17.2907 11.663C17.0652 11.2662 16.8003 10.9208 16.5031 10.6365C16.1923 10.3391 15.8117 10.1 15.3716 9.9256C14.9331 9.75211 14.4471 9.66422 13.9272 9.66422C13.7231 9.66422 13.5256 9.74799 13.1443 9.99624C12.9096 10.1493 12.6351 10.3263 12.3287 10.5221C12.0667 10.689 11.7118 10.8454 11.2734 10.987C10.8457 11.1254 10.4115 11.1956 9.98285 11.1956C9.55423 11.1956 9.12012 11.1254 8.69196 10.987C8.25403 10.8455 7.89911 10.6891 7.63742 10.5222C7.33392 10.3283 7.05927 10.1513 6.82108 9.99609C6.44022 9.74783 6.24261 9.66406 6.03845 9.66406C5.51843 9.66406 5.03259 9.75211 4.59421 9.92575C4.15445 10.0999 3.77374 10.339 3.46262 10.6367C3.16553 10.9211 2.90048 11.2664 2.67526 11.663C2.45813 12.0452 2.28235 12.4439 2.15295 12.8481C2.02798 13.2389 1.92346 13.6663 1.84229 14.1185C1.76187 14.5668 1.70724 14.9921 1.68024 15.3827C1.65369 15.7654 1.64026 16.1626 1.64026 16.5638C1.64026 17.6078 1.97214 18.4529 2.62659 19.0763C3.27295 19.6913 4.1282 20.0034 5.16824 20.0034H14.7984C15.8384 20.0034 16.6934 19.6915 17.3399 19.0763C17.9945 18.4534 18.3264 17.6081 18.3264 16.5636C18.3262 16.1606 18.3126 15.7631 18.2859 15.3823Z" stroke="#022B50" stroke-width="2" mask="url(#path-2-inside-2_1635_14411)"/>
</g>
<defs>
<clipPath id="clip0_1635_14411">
<rect width="20" height="20" fill="white"/>
</clipPath>
</defs>
</svg>
